<svg width="1920" height="935" viewBox="0 0 1920 935" fill="none" xmlns="http://www.w3.org/2000/svg">
<g clip-path="url(#clip0_1407_32)">
<path d="M-53.4194 -11.2059C-53.4194 -10.215 -54.2209 -9.41176 -55.2097 -9.41176C-56.1984 -9.41176 -57 -10.215 -57 -11.2059C-57 -12.1967 -56.1984 -13 -55.2097 -13C-54.2209 -13 -53.4194 -12.1967 -53.4194 -11.2059Z" fill="#CFCECE"/>
<path d="M-42.6774 -11.2059C-42.6774 -10.215 -43.479 -9.41176 -44.4677 -9.41176C-45.4565 -9.41176 -46.2581 -10.215 -46.2581 -11.2059C-46.2581 -12.1967 -45.4565 -13 -44.4677 -13C-43.479 -13 -42.6774 -12.1967 -42.6774 -11.2059Z" fill="#CFCECE"/>
<path d="M-31.9355 -11.2059C-31.9355 -10.215 -32.737 -9.41176 -33.7258 -9.41176C-34.7146 -9.41176 -35.5161 -10.215 -35.5161 -11.2059C-35.5161 -12.1967 -34.7146 -13 -33.7258 -13C-32.737 -13 -31.9355 -12.1967 -31.9355 -11.2059Z" fill="#CFCECE"/>
<path d="M-21.1935 -11.2059C-21.1935 -10.215 -21.9951 -9.41176 -22.9839 -9.41176C-23.9726 -9.41176 -24.7742 -10.215 -24.7742 -11.2059C-24.7742 -12.1967 -23.9726 -13 -22.9839 -13C-21.9951 -13 -21.1935 -12.1967 -21.1935 -11.2059Z" fill="#CFCECE"/>
<path d="M-10.4516 -11.2059C-10.4516 -10.215 -11.2532 -9.41176 -12.2419 -9.41176C-13.2307 -9.41176 -14.0323 -10.215 -14.0323 -11.2059C-14.0323 -12.1967 -13.2307 -13 -12.2419 -13C-11.2532 -13 -10.4516 -12.1967 -10.4516 -11.2059Z" fill="#CFCECE"/>
<path d="M0.29032 -11.2059C0.29032 -10.215 -0.511234 -9.41176 -1.5 -9.41176C-2.48877 -9.41176 -3.29032 -10.215 -3.29032 -11.2059C-3.29032 -12.1967 -2.48877 -13 -1.5 -13C-0.511234 -13 0.29032 -12.1967 0.29032 -11.2059Z" fill="#CFCECE"/>
<path d="M11.0323 -11.2059C11.0323 -10.215 10.2307 -9.41176 9.24193 -9.41176C8.25317 -9.41176 7.45161 -10.215 7.45161 -11.2059C7.45161 -12.1967 8.25317 -13 9.24193 -13C10.2307 -13 11.0323 -12.1967 11.0323 -11.2059Z" fill="#CFCECE"/>
<path d="M21.7742 -11.2059C21.7742 -10.215 20.9726 -9.41176 19.9839 -9.41176C18.9951 -9.41176 18.1935 -10.215 18.1935 -11.2059C18.1935 -12.1967 18.9951 -13 19.9839 -13C20.9726 -13 21.7742 -12.1967 21.7742 -11.2059Z" fill="#CFCECE"/>
<path d="M32.5161 -11.2059C32.5161 -10.215 31.7146 -9.41176 30.7258 -9.41176C29.737 -9.41176 28.9355 -10.215 28.9355 -11.2059C28.9355 -12.1967 29.737 -13 30.7258 -13C31.7146 -13 32.5161 -12.1967 32.5161 -11.2059Z" fill="#CFCECE"/>
<path d="M43.2581 -11.2059C43.2581 -10.215 42.4565 -9.41176 41.4677 -9.41176C40.479 -9.41176 39.6774 -10.215 39.6774 -11.2059C39.6774 -12.1967 40.479 -13 41.4677 -13C42.4565 -13 43.2581 -12.1967 43.2581 -11.2059Z" fill="#CFCECE"/>
<path d="M54 -11.2059C54 -10.215 53.1984 -9.41176 52.2097 -9.41176C51.2209 -9.41176 50.4194 -10.215 50.4194 -11.2059C50.4194 -12.1967 51.2209 -13 52.2097 -13C53.1984 -13 54 -12.1967 54 -11.2059Z" fill="#CFCECE"/>
<path d="M-53.4194 -0.441176C-53.4194 0.549688 -54.2209 1.35294 -55.2097 1.35294C-56.1984 1.35294 -57 0.549688 -57 -0.441176C-57 -1.43204 -56.1984 -2.23529 -55.2097 -2.23529C-54.2209 -2.23529 -53.4194 -1.43204 -53.4194 -0.441176Z" fill="#CFCECE"/>
<path d="M-42.6774 -0.441176C-42.6774 0.549688 -43.479 1.35294 -44.4677 1.35294C-45.4565 1.35294 -46.2581 0.549688 -46.2581 -0.441176C-46.2581 -1.43204 -45.4565 -2.23529 -44.4677 -2.23529C-43.479 -2.23529 -42.6774 -1.43204 -42.6774 -0.441176Z" fill="#CFCECE"/>
<path d="M-31.9355 -0.441176C-31.9355 0.549688 -32.737 1.35294 -33.7258 1.35294C-34.7146 1.35294 -35.5161 0.549688 -35.5161 -0.441176C-35.5161 -1.43204 -34.7146 -2.23529 -33.7258 -2.23529C-32.737 -2.23529 -31.9355 -1.43204 -31.9355 -0.441176Z" fill="#CFCECE"/>
<path d="M-21.1935 -0.441176C-21.1935 0.549688 -21.9951 1.35294 -22.9839 1.35294C-23.9726 1.35294 -24.7742 0.549688 -24.7742 -0.441176C-24.7742 -1.43204 -23.9726 -2.23529 -22.9839 -2.23529C-21.9951 -2.23529 -21.1935 -1.43204 -21.1935 -0.441176Z" fill="#CFCECE"/>
<path d="M-10.4516 -0.441176C-10.4516 0.549688 -11.2532 1.35294 -12.2419 1.35294C-13.2307 1.35294 -14.0323 0.549688 -14.0323 -0.441176C-14.0323 -1.43204 -13.2307 -2.23529 -12.2419 -2.23529C-11.2532 -2.23529 -10.4516 -1.43204 -10.4516 -0.441176Z" fill="#CFCECE"/>
<path d="M0.29032 -0.441176C0.29032 0.549688 -0.511234 1.35294 -1.5 1.35294C-2.48877 1.35294 -3.29032 0.549688 -3.29032 -0.441176C-3.29032 -1.43204 -2.48877 -2.23529 -1.5 -2.23529C-0.511234 -2.23529 0.29032 -1.43204 0.29032 -0.441176Z" fill="#CFCECE"/>
<path d="M11.0323 -0.441176C11.0323 0.549688 10.2307 1.35294 9.24193 1.35294C8.25317 1.35294 7.45161 0.549688 7.45161 -0.441176C7.45161 -1.43204 8.25317 -2.23529 9.24193 -2.23529C10.2307 -2.23529 11.0323 -1.43204 11.0323 -0.441176Z" fill="#CFCECE"/>
<path d="M21.7742 -0.441176C21.7742 0.549688 20.9726 1.35294 19.9839 1.35294C18.9951 1.35294 18.1935 0.549688 18.1935 -0.441176C18.1935 -1.43204 18.9951 -2.23529 19.9839 -2.23529C20.9726 -2.23529 21.7742 -1.43204 21.7742 -0.441176Z" fill="#CFCECE"/>
<path d="M32.5161 -0.441176C32.5161 0.549688 31.7146 1.35294 30.7258 1.35294C29.737 1.35294 28.9355 0.549688 28.9355 -0.441176C28.9355 -1.43204 29.737 -2.23529 30.7258 -2.23529C31.7146 -2.23529 32.5161 -1.43204 32.5161 -0.441176Z" fill="#CFCECE"/>
<path d="M43.2581 -0.441176C43.2581 0.549688 42.4565 1.35294 41.4677 1.35294C40.479 1.35294 39.6774 0.549688 39.6774 -0.441176C39.6774 -1.43204 40.479 -2.23529 41.4677 -2.23529C42.4565 -2.23529 43.2581 -1.43204 43.2581 -0.441176Z" fill="#CFCECE"/>
<path d="M54 -0.441176C54 0.549688 53.1984 1.35294 52.2097 1.35294C51.2209 1.35294 50.4194 0.549688 50.4194 -0.441176C50.4194 -1.43204 51.2209 -2.23529 52.2097 -2.23529C53.1984 -2.23529 54 -1.43204 54 -0.441176Z" fill="#CFCECE"/>
<path d="M-53.4194 10.3235C-53.4194 11.3144 -54.2209 12.1176 -55.2097 12.1176C-56.1984 12.1176 -57 11.3144 -57 10.3235C-57 9.33267 -56.1984 8.52941 -55.2097 8.52941C-54.2209 8.52941 -53.4194 9.33267 -53.4194 10.3235Z" fill="#CFCECE"/>
<path d="M-42.6774 10.3235C-42.6774 11.3144 -43.479 12.1176 -44.4677 12.1176C-45.4565 12.1176 -46.2581 11.3144 -46.2581 10.3235C-46.2581 9.33267 -45.4565 8.52941 -44.4677 8.52941C-43.479 8.52941 -42.6774 9.33267 -42.6774 10.3235Z" fill="#CFCECE"/>
<path d="M-31.9355 10.3235C-31.9355 11.3144 -32.737 12.1176 -33.7258 12.1176C-34.7146 12.1176 -35.5161 11.3144 -35.5161 10.3235C-35.5161 9.33267 -34.7146 8.52941 -33.7258 8.52941C-32.737 8.52941 -31.9355 9.33267 -31.9355 10.3235Z" fill="#CFCECE"/>
<path d="M-21.1935 10.3235C-21.1935 11.3144 -21.9951 12.1176 -22.9839 12.1176C-23.9726 12.1176 -24.7742 11.3144 -24.7742 10.3235C-24.7742 9.33267 -23.9726 8.52941 -22.9839 8.52941C-21.9951 8.52941 -21.1935 9.33267 -21.1935 10.3235Z" fill="#CFCECE"/>
<path d="M-10.4516 10.3235C-10.4516 11.3144 -11.2532 12.1176 -12.2419 12.1176C-13.2307 12.1176 -14.0323 11.3144 -14.0323 10.3235C-14.0323 9.33267 -13.2307 8.52941 -12.2419 8.52941C-11.2532 8.52941 -10.4516 9.33267 -10.4516 10.3235Z" fill="#CFCECE"/>
<path d="M0.29032 10.3235C0.29032 11.3144 -0.511234 12.1176 -1.5 12.1176C-2.48877 12.1176 -3.29032 11.3144 -3.29032 10.3235C-3.29032 9.33267 -2.48877 8.52941 -1.5 8.52941C-0.511234 8.52941 0.29032 9.33267 0.29032 10.3235Z" fill="#CFCECE"/>
<path d="M11.0323 10.3235C11.0323 11.3144 10.2307 12.1176 9.24193 12.1176C8.25317 12.1176 7.45161 11.3144 7.45161 10.3235C7.45161 9.33267 8.25317 8.52941 9.24193 8.52941C10.2307 8.52941 11.0323 9.33267 11.0323 10.3235Z" fill="#CFCECE"/>
<path d="M21.7742 10.3235C21.7742 11.3144 20.9726 12.1176 19.9839 12.1176C18.9951 12.1176 18.1935 11.3144 18.1935 10.3235C18.1935 9.33267 18.9951 8.52941 19.9839 8.52941C20.9726 8.52941 21.7742 9.33267 21.7742 10.3235Z" fill="#CFCECE"/>
<path d="M32.5161 10.3235C32.5161 11.3144 31.7146 12.1176 30.7258 12.1176C29.737 12.1176 28.9355 11.3144 28.9355 10.3235C28.9355 9.33267 29.737 8.52941 30.7258 8.52941C31.7146 8.52941 32.5161 9.33267 32.5161 10.3235Z" fill="#CFCECE"/>
<path d="M43.2581 10.3235C43.2581 11.3144 42.4565 12.1176 41.4677 12.1176C40.479 12.1176 39.6774 11.3144 39.6774 10.3235C39.6774 9.33267 40.479 8.52941 41.4677 8.52941C42.4565 8.52941 43.2581 9.33267 43.2581 10.3235Z" fill="#CFCECE"/>
<path d="M54 10.3235C54 11.3144 53.1984 12.1176 52.2097 12.1176C51.2209 12.1176 50.4194 11.3144 50.4194 10.3235C50.4194 9.33267 51.2209 8.52941 52.2097 8.52941C53.1984 8.52941 54 9.33267 54 10.3235Z" fill="#CFCECE"/>
<path d="M-53.4194 21.0882C-53.4194 22.0791 -54.2209 22.8824 -55.2097 22.8824C-56.1984 22.8824 -57 22.0791 -57 21.0882C-57 20.0974 -56.1984 19.2941 -55.2097 19.2941C-54.2209 19.2941 -53.4194 20.0974 -53.4194 21.0882Z" fill="#CFCECE"/>
<path d="M-42.6774 21.0882C-42.6774 22.0791 -43.479 22.8824 -44.4677 22.8824C-45.4565 22.8824 -46.2581 22.0791 -46.2581 21.0882C-46.2581 20.0974 -45.4565 19.2941 -44.4677 19.2941C-43.479 19.2941 -42.6774 20.0974 -42.6774 21.0882Z" fill="#CFCECE"/>
<path d="M-31.9355 21.0882C-31.9355 22.0791 -32.737 22.8824 -33.7258 22.8824C-34.7146 22.8824 -35.5161 22.0791 -35.5161 21.0882C-35.5161 20.0974 -34.7146 19.2941 -33.7258 19.2941C-32.737 19.2941 -31.9355 20.0974 -31.9355 21.0882Z" fill="#CFCECE"/>
<path d="M-21.1935 21.0882C-21.1935 22.0791 -21.9951 22.8824 -22.9839 22.8824C-23.9726 22.8824 -24.7742 22.0791 -24.7742 21.0882C-24.7742 20.0974 -23.9726 19.2941 -22.9839 19.2941C-21.9951 19.2941 -21.1935 20.0974 -21.1935 21.0882Z" fill="#CFCECE"/>
<path d="M-10.4516 21.0882C-10.4516 22.0791 -11.2532 22.8824 -12.2419 22.8824C-13.2307 22.8824 -14.0323 22.0791 -14.0323 21.0882C-14.0323 20.0974 -13.2307 19.2941 -12.2419 19.2941C-11.2532 19.2941 -10.4516 20.0974 -10.4516 21.0882Z" fill="#CFCECE"/>
<path d="M0.29032 21.0882C0.29032 22.0791 -0.511234 22.8824 -1.5 22.8824C-2.48877 22.8824 -3.29032 22.0791 -3.29032 21.0882C-3.29032 20.0974 -2.48877 19.2941 -1.5 19.2941C-0.511234 19.2941 0.29032 20.0974 0.29032 21.0882Z" fill="#CFCECE"/>
<path d="M11.0323 21.0882C11.0323 22.0791 10.2307 22.8824 9.24193 22.8824C8.25317 22.8824 7.45161 22.0791 7.45161 21.0882C7.45161 20.0974 8.25317 19.2941 9.24193 19.2941C10.2307 19.2941 11.0323 20.0974 11.0323 21.0882Z" fill="#CFCECE"/>
<path d="M21.7742 21.0882C21.7742 22.0791 20.9726 22.8824 19.9839 22.8824C18.9951 22.8824 18.1935 22.0791 18.1935 21.0882C18.1935 20.0974 18.9951 19.2941 19.9839 19.2941C20.9726 19.2941 21.7742 20.0974 21.7742 21.0882Z" fill="#CFCECE"/>
<path d="M32.5161 21.0882C32.5161 22.0791 31.7146 22.8824 30.7258 22.8824C29.737 22.8824 28.9355 22.0791 28.9355 21.0882C28.9355 20.0974 29.737 19.2941 30.7258 19.2941C31.7146 19.2941 32.5161 20.0974 32.5161 21.0882Z" fill="#CFCECE"/>
<path d="M43.2581 21.0882C43.2581 22.0791 42.4565 22.8824 41.4677 22.8824C40.479 22.8824 39.6774 22.0791 39.6774 21.0882C39.6774 20.0974 40.479 19.2941 41.4677 19.2941C42.4565 19.2941 43.2581 20.0974 43.2581 21.0882Z" fill="#CFCECE"/>
<path d="M54 21.0882C54 22.0791 53.1984 22.8824 52.2097 22.8824C51.2209 22.8824 50.4194 22.0791 50.4194 21.0882C50.4194 20.0974 51.2209 19.2941 52.2097 19.2941C53.1984 19.2941 54 20.0974 54 21.0882Z" fill="#CFCECE"/>
<path d="M-53.4194 31.8529C-53.4194 32.8438 -54.2209 33.6471 -55.2097 33.6471C-56.1984 33.6471 -57 32.8438 -57 31.8529C-57 30.8621 -56.1984 30.0588 -55.2097 30.0588C-54.2209 30.0588 -53.4194 30.8621 -53.4194 31.8529Z" fill="#CFCECE"/>
<path d="M-42.6774 31.8529C-42.6774 32.8438 -43.479 33.6471 -44.4677 33.6471C-45.4565 33.6471 -46.2581 32.8438 -46.2581 31.8529C-46.2581 30.8621 -45.4565 30.0588 -44.4677 30.0588C-43.479 30.0588 -42.6774 30.8621 -42.6774 31.8529Z" fill="#CFCECE"/>
<path d="M-31.9355 31.8529C-31.9355 32.8438 -32.737 33.6471 -33.7258 33.6471C-34.7146 33.6471 -35.5161 32.8438 -35.5161 31.8529C-35.5161 30.8621 -34.7146 30.0588 -33.7258 30.0588C-32.737 30.0588 -31.9355 30.8621 -31.9355 31.8529Z" fill="#CFCECE"/>
<path d="M-21.1935 31.8529C-21.1935 32.8438 -21.9951 33.6471 -22.9839 33.6471C-23.9726 33.6471 -24.7742 32.8438 -24.7742 31.8529C-24.7742 30.8621 -23.9726 30.0588 -22.9839 30.0588C-21.9951 30.0588 -21.1935 30.8621 -21.1935 31.8529Z" fill="#CFCECE"/>
<path d="M-10.4516 31.8529C-10.4516 32.8438 -11.2532 33.6471 -12.2419 33.6471C-13.2307 33.6471 -14.0323 32.8438 -14.0323 31.8529C-14.0323 30.8621 -13.2307 30.0588 -12.2419 30.0588C-11.2532 30.0588 -10.4516 30.8621 -10.4516 31.8529Z" fill="#CFCECE"/>
<path d="M0.29032 31.8529C0.29032 32.8438 -0.511234 33.6471 -1.5 33.6471C-2.48877 33.6471 -3.29032 32.8438 -3.29032 31.8529C-3.29032 30.8621 -2.48877 30.0588 -1.5 30.0588C-0.511234 30.0588 0.29032 30.8621 0.29032 31.8529Z" fill="#CFCECE"/>
<path d="M11.0323 31.8529C11.0323 32.8438 10.2307 33.6471 9.24193 33.6471C8.25317 33.6471 7.45161 32.8438 7.45161 31.8529C7.45161 30.8621 8.25317 30.0588 9.24193 30.0588C10.2307 30.0588 11.0323 30.8621 11.0323 31.8529Z" fill="#CFCECE"/>
<path d="M21.7742 31.8529C21.7742 32.8438 20.9726 33.6471 19.9839 33.6471C18.9951 33.6471 18.1935 32.8438 18.1935 31.8529C18.1935 30.8621 18.9951 30.0588 19.9839 30.0588C20.9726 30.0588 21.7742 30.8621 21.7742 31.8529Z" fill="#CFCECE"/>
<path d="M32.5161 31.8529C32.5161 32.8438 31.7146 33.6471 30.7258 33.6471C29.737 33.6471 28.9355 32.8438 28.9355 31.8529C28.9355 30.8621 29.737 30.0588 30.7258 30.0588C31.7146 30.0588 32.5161 30.8621 32.5161 31.8529Z" fill="#CFCECE"/>
<path d="M43.2581 31.8529C43.2581 32.8438 42.4565 33.6471 41.4677 33.6471C40.479 33.6471 39.6774 32.8438 39.6774 31.8529C39.6774 30.8621 40.479 30.0588 41.4677 30.0588C42.4565 30.0588 43.2581 30.8621 43.2581 31.8529Z" fill="#CFCECE"/>
<path d="M54 31.8529C54 32.8438 53.1984 33.6471 52.2097 33.6471C51.2209 33.6471 50.4194 32.8438 50.4194 31.8529C50.4194 30.8621 51.2209 30.0588 52.2097 30.0588C53.1984 30.0588 54 30.8621 54 31.8529Z" fill="#CFCECE"/>
<path d="M-53.4194 42.6176C-53.4194 43.6085 -54.2209 44.4118 -55.2097 44.4118C-56.1984 44.4118 -57 43.6085 -57 42.6176C-57 41.6268 -56.1984 40.8235 -55.2097 40.8235C-54.2209 40.8235 -53.4194 41.6268 -53.4194 42.6176Z" fill="#CFCECE"/>
<path d="M-42.6774 42.6176C-42.6774 43.6085 -43.479 44.4118 -44.4677 44.4118C-45.4565 44.4118 -46.2581 43.6085 -46.2581 42.6176C-46.2581 41.6268 -45.4565 40.8235 -44.4677 40.8235C-43.479 40.8235 -42.6774 41.6268 -42.6774 42.6176Z" fill="#CFCECE"/>
<path d="M-31.9355 42.6176C-31.9355 43.6085 -32.737 44.4118 -33.7258 44.4118C-34.7146 44.4118 -35.5161 43.6085 -35.5161 42.6176C-35.5161 41.6268 -34.7146 40.8235 -33.7258 40.8235C-32.737 40.8235 -31.9355 41.6268 -31.9355 42.6176Z" fill="#CFCECE"/>
<path d="M-21.1935 42.6176C-21.1935 43.6085 -21.9951 44.4118 -22.9839 44.4118C-23.9726 44.4118 -24.7742 43.6085 -24.7742 42.6176C-24.7742 41.6268 -23.9726 40.8235 -22.9839 40.8235C-21.9951 40.8235 -21.1935 41.6268 -21.1935 42.6176Z" fill="#CFCECE"/>
<path d="M-10.4516 42.6176C-10.4516 43.6085 -11.2532 44.4118 -12.2419 44.4118C-13.2307 44.4118 -14.0323 43.6085 -14.0323 42.6176C-14.0323 41.6268 -13.2307 40.8235 -12.2419 40.8235C-11.2532 40.8235 -10.4516 41.6268 -10.4516 42.6176Z" fill="#CFCECE"/>
<path d="M0.29032 42.6176C0.29032 43.6085 -0.511234 44.4118 -1.5 44.4118C-2.48877 44.4118 -3.29032 43.6085 -3.29032 42.6176C-3.29032 41.6268 -2.48877 40.8235 -1.5 40.8235C-0.511234 40.8235 0.29032 41.6268 0.29032 42.6176Z" fill="#CFCECE"/>
<path d="M11.0323 42.6176C11.0323 43.6085 10.2307 44.4118 9.24193 44.4118C8.25317 44.4118 7.45161 43.6085 7.45161 42.6176C7.45161 41.6268 8.25317 40.8235 9.24193 40.8235C10.2307 40.8235 11.0323 41.6268 11.0323 42.6176Z" fill="#CFCECE"/>
<path d="M21.7742 42.6176C21.7742 43.6085 20.9726 44.4118 19.9839 44.4118C18.9951 44.4118 18.1935 43.6085 18.1935 42.6176C18.1935 41.6268 18.9951 40.8235 19.9839 40.8235C20.9726 40.8235 21.7742 41.6268 21.7742 42.6176Z" fill="#CFCECE"/>
<path d="M32.5161 42.6176C32.5161 43.6085 31.7146 44.4118 30.7258 44.4118C29.737 44.4118 28.9355 43.6085 28.9355 42.6176C28.9355 41.6268 29.737 40.8235 30.7258 40.8235C31.7146 40.8235 32.5161 41.6268 32.5161 42.6176Z" fill="#CFCECE"/>
<path d="M43.2581 42.6176C43.2581 43.6085 42.4565 44.4118 41.4677 44.4118C40.479 44.4118 39.6774 43.6085 39.6774 42.6176C39.6774 41.6268 40.479 40.8235 41.4677 40.8235C42.4565 40.8235 43.2581 41.6268 43.2581 42.6176Z" fill="#CFCECE"/>
<path d="M54 42.6176C54 43.6085 53.1984 44.4118 52.2097 44.4118C51.2209 44.4118 50.4194 43.6085 50.4194 42.6176C50.4194 41.6268 51.2209 40.8235 52.2097 40.8235C53.1984 40.8235 54 41.6268 54 42.6176Z" fill="#CFCECE"/>
<path d="M-53.4194 53.3824C-53.4194 54.3732 -54.2209 55.1765 -55.2097 55.1765C-56.1984 55.1765 -57 54.3732 -57 53.3824C-57 52.3915 -56.1984 51.5882 -55.2097 51.5882C-54.2209 51.5882 -53.4194 52.3915 -53.4194 53.3824Z" fill="#CFCECE"/>
<path d="M-42.6774 53.3824C-42.6774 54.3732 -43.479 55.1765 -44.4677 55.1765C-45.4565 55.1765 -46.2581 54.3732 -46.2581 53.3824C-46.2581 52.3915 -45.4565 51.5882 -44.4677 51.5882C-43.479 51.5882 -42.6774 52.3915 -42.6774 53.3824Z" fill="#CFCECE"/>
<path d="M-31.9355 53.3824C-31.9355 54.3732 -32.737 55.1765 -33.7258 55.1765C-34.7146 55.1765 -35.5161 54.3732 -35.5161 53.3824C-35.5161 52.3915 -34.7146 51.5882 -33.7258 51.5882C-32.737 51.5882 -31.9355 52.3915 -31.9355 53.3824Z" fill="#CFCECE"/>
<path d="M-21.1935 53.3824C-21.1935 54.3732 -21.9951 55.1765 -22.9839 55.1765C-23.9726 55.1765 -24.7742 54.3732 -24.7742 53.3824C-24.7742 52.3915 -23.9726 51.5882 -22.9839 51.5882C-21.9951 51.5882 -21.1935 52.3915 -21.1935 53.3824Z" fill="#CFCECE"/>
<path d="M-10.4516 53.3824C-10.4516 54.3732 -11.2532 55.1765 -12.2419 55.1765C-13.2307 55.1765 -14.0323 54.3732 -14.0323 53.3824C-14.0323 52.3915 -13.2307 51.5882 -12.2419 51.5882C-11.2532 51.5882 -10.4516 52.3915 -10.4516 53.3824Z" fill="#CFCECE"/>
<path d="M0.29032 53.3824C0.29032 54.3732 -0.511234 55.1765 -1.5 55.1765C-2.48877 55.1765 -3.29032 54.3732 -3.29032 53.3824C-3.29032 52.3915 -2.48877 51.5882 -1.5 51.5882C-0.511234 51.5882 0.29032 52.3915 0.29032 53.3824Z" fill="#CFCECE"/>
<path d="M11.0323 53.3824C11.0323 54.3732 10.2307 55.1765 9.24193 55.1765C8.25317 55.1765 7.45161 54.3732 7.45161 53.3824C7.45161 52.3915 8.25317 51.5882 9.24193 51.5882C10.2307 51.5882 11.0323 52.3915 11.0323 53.3824Z" fill="#CFCECE"/>
<path d="M21.7742 53.3824C21.7742 54.3732 20.9726 55.1765 19.9839 55.1765C18.9951 55.1765 18.1935 54.3732 18.1935 53.3824C18.1935 52.3915 18.9951 51.5882 19.9839 51.5882C20.9726 51.5882 21.7742 52.3915 21.7742 53.3824Z" fill="#CFCECE"/>
<path d="M32.5161 53.3824C32.5161 54.3732 31.7146 55.1765 30.7258 55.1765C29.737 55.1765 28.9355 54.3732 28.9355 53.3824C28.9355 52.3915 29.737 51.5882 30.7258 51.5882C31.7146 51.5882 32.5161 52.3915 32.5161 53.3824Z" fill="#CFCECE"/>
<path d="M43.2581 53.3824C43.2581 54.3732 42.4565 55.1765 41.4677 55.1765C40.479 55.1765 39.6774 54.3732 39.6774 53.3824C39.6774 52.3915 40.479 51.5882 41.4677 51.5882C42.4565 51.5882 43.2581 52.3915 43.2581 53.3824Z" fill="#CFCECE"/>
<path d="M54 53.3824C54 54.3732 53.1984 55.1765 52.2097 55.1765C51.2209 55.1765 50.4194 54.3732 50.4194 53.3824C50.4194 52.3915 51.2209 51.5882 52.2097 51.5882C53.1984 51.5882 54 52.3915 54 53.3824Z" fill="#CFCECE"/>
<path d="M-53.4194 64.1471C-53.4194 65.1379 -54.2209 65.9412 -55.2097 65.9412C-56.1984 65.9412 -57 65.1379 -57 64.1471C-57 63.1562 -56.1984 62.3529 -55.2097 62.3529C-54.2209 62.3529 -53.4194 63.1562 -53.4194 64.1471Z" fill="#CFCECE"/>
<path d="M-42.6774 64.1471C-42.6774 65.1379 -43.479 65.9412 -44.4677 65.9412C-45.4565 65.9412 -46.2581 65.1379 -46.2581 64.1471C-46.2581 63.1562 -45.4565 62.3529 -44.4677 62.3529C-43.479 62.3529 -42.6774 63.1562 -42.6774 64.1471Z" fill="#CFCECE"/>
<path d="M-31.9355 64.1471C-31.9355 65.1379 -32.737 65.9412 -33.7258 65.9412C-34.7146 65.9412 -35.5161 65.1379 -35.5161 64.1471C-35.5161 63.1562 -34.7146 62.3529 -33.7258 62.3529C-32.737 62.3529 -31.9355 63.1562 -31.9355 64.1471Z" fill="#CFCECE"/>
<path d="M-21.1935 64.1471C-21.1935 65.1379 -21.9951 65.9412 -22.9839 65.9412C-23.9726 65.9412 -24.7742 65.1379 -24.7742 64.1471C-24.7742 63.1562 -23.9726 62.3529 -22.9839 62.3529C-21.9951 62.3529 -21.1935 63.1562 -21.1935 64.1471Z" fill="#CFCECE"/>
<path d="M-10.4516 64.1471C-10.4516 65.1379 -11.2532 65.9412 -12.2419 65.9412C-13.2307 65.9412 -14.0323 65.1379 -14.0323 64.1471C-14.0323 63.1562 -13.2307 62.3529 -12.2419 62.3529C-11.2532 62.3529 -10.4516 63.1562 -10.4516 64.1471Z" fill="#CFCECE"/>
<path d="M0.29032 64.1471C0.29032 65.1379 -0.511234 65.9412 -1.5 65.9412C-2.48877 65.9412 -3.29032 65.1379 -3.29032 64.1471C-3.29032 63.1562 -2.48877 62.3529 -1.5 62.3529C-0.511234 62.3529 0.29032 63.1562 0.29032 64.1471Z" fill="#CFCECE"/>
<path d="M11.0323 64.1471C11.0323 65.1379 10.2307 65.9412 9.24193 65.9412C8.25317 65.9412 7.45161 65.1379 7.45161 64.1471C7.45161 63.1562 8.25317 62.3529 9.24193 62.3529C10.2307 62.3529 11.0323 63.1562 11.0323 64.1471Z" fill="#CFCECE"/>
<path d="M21.7742 64.1471C21.7742 65.1379 20.9726 65.9412 19.9839 65.9412C18.9951 65.9412 18.1935 65.1379 18.1935 64.1471C18.1935 63.1562 18.9951 62.3529 19.9839 62.3529C20.9726 62.3529 21.7742 63.1562 21.7742 64.1471Z" fill="#CFCECE"/>
<path d="M32.5161 64.1471C32.5161 65.1379 31.7146 65.9412 30.7258 65.9412C29.737 65.9412 28.9355 65.1379 28.9355 64.1471C28.9355 63.1562 29.737 62.3529 30.7258 62.3529C31.7146 62.3529 32.5161 63.1562 32.5161 64.1471Z" fill="#CFCECE"/>
<path d="M43.2581 64.1471C43.2581 65.1379 42.4565 65.9412 41.4677 65.9412C40.479 65.9412 39.6774 65.1379 39.6774 64.1471C39.6774 63.1562 40.479 62.3529 41.4677 62.3529C42.4565 62.3529 43.2581 63.1562 43.2581 64.1471Z" fill="#CFCECE"/>
<path d="M54 64.1471C54 65.1379 53.1984 65.9412 52.2097 65.9412C51.2209 65.9412 50.4194 65.1379 50.4194 64.1471C50.4194 63.1562 51.2209 62.3529 52.2097 62.3529C53.1984 62.3529 54 63.1562 54 64.1471Z" fill="#CFCECE"/>
<path d="M-53.4194 74.9118C-53.4194 75.9026 -54.2209 76.7059 -55.2097 76.7059C-56.1984 76.7059 -57 75.9026 -57 74.9118C-57 73.9209 -56.1984 73.1176 -55.2097 73.1176C-54.2209 73.1176 -53.4194 73.9209 -53.4194 74.9118Z" fill="#CFCECE"/>
<path d="M-42.6774 74.9118C-42.6774 75.9026 -43.479 76.7059 -44.4677 76.7059C-45.4565 76.7059 -46.2581 75.9026 -46.2581 74.9118C-46.2581 73.9209 -45.4565 73.1176 -44.4677 73.1176C-43.479 73.1176 -42.6774 73.9209 -42.6774 74.9118Z" fill="#CFCECE"/>
<path d="M-31.9355 74.9118C-31.9355 75.9026 -32.737 76.7059 -33.7258 76.7059C-34.7146 76.7059 -35.5161 75.9026 -35.5161 74.9118C-35.5161 73.9209 -34.7146 73.1176 -33.7258 73.1176C-32.737 73.1176 -31.9355 73.9209 -31.9355 74.9118Z" fill="#CFCECE"/>
<path d="M-21.1935 74.9118C-21.1935 75.9026 -21.9951 76.7059 -22.9839 76.7059C-23.9726 76.7059 -24.7742 75.9026 -24.7742 74.9118C-24.7742 73.9209 -23.9726 73.1176 -22.9839 73.1176C-21.9951 73.1176 -21.1935 73.9209 -21.1935 74.9118Z" fill="#CFCECE"/>
<path d="M-10.4516 74.9118C-10.4516 75.9026 -11.2532 76.7059 -12.2419 76.7059C-13.2307 76.7059 -14.0323 75.9026 -14.0323 74.9118C-14.0323 73.9209 -13.2307 73.1176 -12.2419 73.1176C-11.2532 73.1176 -10.4516 73.9209 -10.4516 74.9118Z" fill="#CFCECE"/>
<path d="M0.29032 74.9118C0.29032 75.9026 -0.511234 76.7059 -1.5 76.7059C-2.48877 76.7059 -3.29032 75.9026 -3.29032 74.9118C-3.29032 73.9209 -2.48877 73.1176 -1.5 73.1176C-0.511234 73.1176 0.29032 73.9209 0.29032 74.9118Z" fill="#CFCECE"/>
<path d="M11.0323 74.9118C11.0323 75.9026 10.2307 76.7059 9.24193 76.7059C8.25317 76.7059 7.45161 75.9026 7.45161 74.9118C7.45161 73.9209 8.25317 73.1176 9.24193 73.1176C10.2307 73.1176 11.0323 73.9209 11.0323 74.9118Z" fill="#CFCECE"/>
<path d="M21.7742 74.9118C21.7742 75.9026 20.9726 76.7059 19.9839 76.7059C18.9951 76.7059 18.1935 75.9026 18.1935 74.9118C18.1935 73.9209 18.9951 73.1176 19.9839 73.1176C20.9726 73.1176 21.7742 73.9209 21.7742 74.9118Z" fill="#CFCECE"/>
<path d="M32.5161 74.9118C32.5161 75.9026 31.7146 76.7059 30.7258 76.7059C29.737 76.7059 28.9355 75.9026 28.9355 74.9118C28.9355 73.9209 29.737 73.1176 30.7258 73.1176C31.7146 73.1176 32.5161 73.9209 32.5161 74.9118Z" fill="#CFCECE"/>
<path d="M43.2581 74.9118C43.2581 75.9026 42.4565 76.7059 41.4677 76.7059C40.479 76.7059 39.6774 75.9026 39.6774 74.9118C39.6774 73.9209 40.479 73.1176 41.4677 73.1176C42.4565 73.1176 43.2581 73.9209 43.2581 74.9118Z" fill="#CFCECE"/>
<path d="M54 74.9118C54 75.9026 53.1984 76.7059 52.2097 76.7059C51.2209 76.7059 50.4194 75.9026 50.4194 74.9118C50.4194 73.9209 51.2209 73.1176 52.2097 73.1176C53.1984 73.1176 54 73.9209 54 74.9118Z" fill="#CFCECE"/>
<path d="M-53.4194 85.6765C-53.4194 86.6673 -54.2209 87.4706 -55.2097 87.4706C-56.1984 87.4706 -57 86.6673 -57 85.6765C-57 84.6856 -56.1984 83.8824 -55.2097 83.8824C-54.2209 83.8824 -53.4194 84.6856 -53.4194 85.6765Z" fill="#CFCECE"/>
<path d="M-42.6774 85.6765C-42.6774 86.6673 -43.479 87.4706 -44.4677 87.4706C-45.4565 87.4706 -46.2581 86.6673 -46.2581 85.6765C-46.2581 84.6856 -45.4565 83.8824 -44.4677 83.8824C-43.479 83.8824 -42.6774 84.6856 -42.6774 85.6765Z" fill="#CFCECE"/>
<path d="M-31.9355 85.6765C-31.9355 86.6673 -32.737 87.4706 -33.7258 87.4706C-34.7146 87.4706 -35.5161 86.6673 -35.5161 85.6765C-35.5161 84.6856 -34.7146 83.8824 -33.7258 83.8824C-32.737 83.8824 -31.9355 84.6856 -31.9355 85.6765Z" fill="#CFCECE"/>
<path d="M-21.1935 85.6765C-21.1935 86.6673 -21.9951 87.4706 -22.9839 87.4706C-23.9726 87.4706 -24.7742 86.6673 -24.7742 85.6765C-24.7742 84.6856 -23.9726 83.8824 -22.9839 83.8824C-21.9951 83.8824 -21.1935 84.6856 -21.1935 85.6765Z" fill="#CFCECE"/>
<path d="M-10.4516 85.6765C-10.4516 86.6673 -11.2532 87.4706 -12.2419 87.4706C-13.2307 87.4706 -14.0323 86.6673 -14.0323 85.6765C-14.0323 84.6856 -13.2307 83.8824 -12.2419 83.8824C-11.2532 83.8824 -10.4516 84.6856 -10.4516 85.6765Z" fill="#CFCECE"/>
<path d="M0.29032 85.6765C0.29032 86.6673 -0.511234 87.4706 -1.5 87.4706C-2.48877 87.4706 -3.29032 86.6673 -3.29032 85.6765C-3.29032 84.6856 -2.48877 83.8824 -1.5 83.8824C-0.511234 83.8824 0.29032 84.6856 0.29032 85.6765Z" fill="#CFCECE"/>
<path d="M11.0323 85.6765C11.0323 86.6673 10.2307 87.4706 9.24193 87.4706C8.25317 87.4706 7.45161 86.6673 7.45161 85.6765C7.45161 84.6856 8.25317 83.8824 9.24193 83.8824C10.2307 83.8824 11.0323 84.6856 11.0323 85.6765Z" fill="#CFCECE"/>
<path d="M21.7742 85.6765C21.7742 86.6673 20.9726 87.4706 19.9839 87.4706C18.9951 87.4706 18.1935 86.6673 18.1935 85.6765C18.1935 84.6856 18.9951 83.8824 19.9839 83.8824C20.9726 83.8824 21.7742 84.6856 21.7742 85.6765Z" fill="#CFCECE"/>
<path d="M32.5161 85.6765C32.5161 86.6673 31.7146 87.4706 30.7258 87.4706C29.737 87.4706 28.9355 86.6673 28.9355 85.6765C28.9355 84.6856 29.737 83.8824 30.7258 83.8824C31.7146 83.8824 32.5161 84.6856 32.5161 85.6765Z" fill="#CFCECE"/>
<path d="M43.2581 85.6765C43.2581 86.6673 42.4565 87.4706 41.4677 87.4706C40.479 87.4706 39.6774 86.6673 39.6774 85.6765C39.6774 84.6856 40.479 83.8824 41.4677 83.8824C42.4565 83.8824 43.2581 84.6856 43.2581 85.6765Z" fill="#CFCECE"/>
<path d="M54 85.6765C54 86.6673 53.1984 87.4706 52.2097 87.4706C51.2209 87.4706 50.4194 86.6673 50.4194 85.6765C50.4194 84.6856 51.2209 83.8824 52.2097 83.8824C53.1984 83.8824 54 84.6856 54 85.6765Z" fill="#CFCECE"/>
<path d="M-53.4194 96.4412C-53.4194 97.432 -54.2209 98.2353 -55.2097 98.2353C-56.1984 98.2353 -57 97.432 -57 96.4412C-57 95.4503 -56.1984 94.6471 -55.2097 94.6471C-54.2209 94.6471 -53.4194 95.4503 -53.4194 96.4412Z" fill="#CFCECE"/>
<path d="M-42.6774 96.4412C-42.6774 97.432 -43.479 98.2353 -44.4677 98.2353C-45.4565 98.2353 -46.2581 97.432 -46.2581 96.4412C-46.2581 95.4503 -45.4565 94.6471 -44.4677 94.6471C-43.479 94.6471 -42.6774 95.4503 -42.6774 96.4412Z" fill="#CFCECE"/>
<path d="M-31.9355 96.4412C-31.9355 97.432 -32.737 98.2353 -33.7258 98.2353C-34.7146 98.2353 -35.5161 97.432 -35.5161 96.4412C-35.5161 95.4503 -34.7146 94.6471 -33.7258 94.6471C-32.737 94.6471 -31.9355 95.4503 -31.9355 96.4412Z" fill="#CFCECE"/>
<path d="M-21.1935 96.4412C-21.1935 97.432 -21.9951 98.2353 -22.9839 98.2353C-23.9726 98.2353 -24.7742 97.432 -24.7742 96.4412C-24.7742 95.4503 -23.9726 94.6471 -22.9839 94.6471C-21.9951 94.6471 -21.1935 95.4503 -21.1935 96.4412Z" fill="#CFCECE"/>
<path d="M-10.4516 96.4412C-10.4516 97.432 -11.2532 98.2353 -12.2419 98.2353C-13.2307 98.2353 -14.0323 97.432 -14.0323 96.4412C-14.0323 95.4503 -13.2307 94.6471 -12.2419 94.6471C-11.2532 94.6471 -10.4516 95.4503 -10.4516 96.4412Z" fill="#CFCECE"/>
<path d="M0.29032 96.4412C0.29032 97.432 -0.511234 98.2353 -1.5 98.2353C-2.48877 98.2353 -3.29032 97.432 -3.29032 96.4412C-3.29032 95.4503 -2.48877 94.6471 -1.5 94.6471C-0.511234 94.6471 0.29032 95.4503 0.29032 96.4412Z" fill="#CFCECE"/>
<path d="M11.0323 96.4412C11.0323 97.432 10.2307 98.2353 9.24193 98.2353C8.25317 98.2353 7.45161 97.432 7.45161 96.4412C7.45161 95.4503 8.25317 94.6471 9.24193 94.6471C10.2307 94.6471 11.0323 95.4503 11.0323 96.4412Z" fill="#CFCECE"/>
<path d="M21.7742 96.4412C21.7742 97.432 20.9726 98.2353 19.9839 98.2353C18.9951 98.2353 18.1935 97.432 18.1935 96.4412C18.1935 95.4503 18.9951 94.6471 19.9839 94.6471C20.9726 94.6471 21.7742 95.4503 21.7742 96.4412Z" fill="#CFCECE"/>
<path d="M32.5161 96.4412C32.5161 97.432 31.7146 98.2353 30.7258 98.2353C29.737 98.2353 28.9355 97.432 28.9355 96.4412C28.9355 95.4503 29.737 94.6471 30.7258 94.6471C31.7146 94.6471 32.5161 95.4503 32.5161 96.4412Z" fill="#CFCECE"/>
<path d="M43.2581 96.4412C43.2581 97.432 42.4565 98.2353 41.4677 98.2353C40.479 98.2353 39.6774 97.432 39.6774 96.4412C39.6774 95.4503 40.479 94.6471 41.4677 94.6471C42.4565 94.6471 43.2581 95.4503 43.2581 96.4412Z" fill="#CFCECE"/>
<path d="M54 96.4412C54 97.432 53.1984 98.2353 52.2097 98.2353C51.2209 98.2353 50.4194 97.432 50.4194 96.4412C50.4194 95.4503 51.2209 94.6471 52.2097 94.6471C53.1984 94.6471 54 95.4503 54 96.4412Z" fill="#CFCECE"/>
<path d="M-53.4194 107.206C-53.4194 108.197 -54.2209 109 -55.2097 109C-56.1984 109 -57 108.197 -57 107.206C-57 106.215 -56.1984 105.412 -55.2097 105.412C-54.2209 105.412 -53.4194 106.215 -53.4194 107.206Z" fill="#CFCECE"/>
<path d="M-42.6774 107.206C-42.6774 108.197 -43.479 109 -44.4677 109C-45.4565 109 -46.2581 108.197 -46.2581 107.206C-46.2581 106.215 -45.4565 105.412 -44.4677 105.412C-43.479 105.412 -42.6774 106.215 -42.6774 107.206Z" fill="#CFCECE"/>
<path d="M-31.9355 107.206C-31.9355 108.197 -32.737 109 -33.7258 109C-34.7146 109 -35.5161 108.197 -35.5161 107.206C-35.5161 106.215 -34.7146 105.412 -33.7258 105.412C-32.737 105.412 -31.9355 106.215 -31.9355 107.206Z" fill="#CFCECE"/>
<path d="M-21.1935 107.206C-21.1935 108.197 -21.9951 109 -22.9839 109C-23.9726 109 -24.7742 108.197 -24.7742 107.206C-24.7742 106.215 -23.9726 105.412 -22.9839 105.412C-21.9951 105.412 -21.1935 106.215 -21.1935 107.206Z" fill="#CFCECE"/>
<path d="M-10.4516 107.206C-10.4516 108.197 -11.2532 109 -12.2419 109C-13.2307 109 -14.0323 108.197 -14.0323 107.206C-14.0323 106.215 -13.2307 105.412 -12.2419 105.412C-11.2532 105.412 -10.4516 106.215 -10.4516 107.206Z" fill="#CFCECE"/>
<path d="M0.29032 107.206C0.29032 108.197 -0.511234 109 -1.5 109C-2.48877 109 -3.29032 108.197 -3.29032 107.206C-3.29032 106.215 -2.48877 105.412 -1.5 105.412C-0.511234 105.412 0.29032 106.215 0.29032 107.206Z" fill="#CFCECE"/>
<path d="M11.0323 107.206C11.0323 108.197 10.2307 109 9.24193 109C8.25317 109 7.45161 108.197 7.45161 107.206C7.45161 106.215 8.25317 105.412 9.24193 105.412C10.2307 105.412 11.0323 106.215 11.0323 107.206Z" fill="#CFCECE"/>
<path d="M21.7742 107.206C21.7742 108.197 20.9726 109 19.9839 109C18.9951 109 18.1935 108.197 18.1935 107.206C18.1935 106.215 18.9951 105.412 19.9839 105.412C20.9726 105.412 21.7742 106.215 21.7742 107.206Z" fill="#CFCECE"/>
<path d="M32.5161 107.206C32.5161 108.197 31.7146 109 30.7258 109C29.737 109 28.9355 108.197 28.9355 107.206C28.9355 106.215 29.737 105.412 30.7258 105.412C31.7146 105.412 32.5161 106.215 32.5161 107.206Z" fill="#CFCECE"/>
<path d="M43.2581 107.206C43.2581 108.197 42.4565 109 41.4677 109C40.479 109 39.6774 108.197 39.6774 107.206C39.6774 106.215 40.479 105.412 41.4677 105.412C42.4565 105.412 43.2581 106.215 43.2581 107.206Z" fill="#CFCECE"/>
<path d="M54 107.206C54 108.197 53.1984 109 52.2097 109C51.2209 109 50.4194 108.197 50.4194 107.206C50.4194 106.215 51.2209 105.412 52.2097 105.412C53.1984 105.412 54 106.215 54 107.206Z" fill="#CFCECE"/>
<path fill-rule="evenodd" clip-rule="evenodd" d="M129 533.923C127.895 533.923 127 533.045 127 531.962C127 530.878 127.895 530 129 530C130.105 530 131 530.878 131 531.962C131 533.045 130.105 533.923 129 533.923ZM129 553.538C127.895 553.538 127 552.66 127 551.577C127 550.494 127.895 549.615 129 549.615C130.105 549.615 131 550.494 131 551.577C131 552.66 130.105 553.538 129 553.538ZM127 571.192C127 572.276 127.895 573.154 129 573.154C130.105 573.154 131 572.276 131 571.192C131 570.109 130.105 569.231 129 569.231C127.895 569.231 127 570.109 127 571.192ZM129 592.769C127.895 592.769 127 591.891 127 590.808C127 589.724 127.895 588.846 129 588.846C130.105 588.846 131 589.724 131 590.808C131 591.891 130.105 592.769 129 592.769ZM127 610.423C127 611.506 127.895 612.385 129 612.385C130.105 612.385 131 611.506 131 610.423C131 609.34 130.105 608.462 129 608.462C127.895 608.462 127 609.34 127 610.423ZM129 632C127.895 632 127 631.122 127 630.038C127 628.955 127.895 628.077 129 628.077C130.105 628.077 131 628.955 131 630.038C131 631.122 130.105 632 129 632ZM107 531.962C107 533.045 107.895 533.923 109 533.923C110.105 533.923 111 533.045 111 531.962C111 530.878 110.105 530 109 530C107.895 530 107 530.878 107 531.962ZM109 553.538C107.895 553.538 107 552.66 107 551.577C107 550.494 107.895 549.615 109 549.615C110.105 549.615 111 550.494 111 551.577C111 552.66 110.105 553.538 109 553.538ZM107 571.192C107 572.276 107.895 573.154 109 573.154C110.105 573.154 111 572.276 111 571.192C111 570.109 110.105 569.231 109 569.231C107.895 569.231 107 570.109 107 571.192ZM109 592.769C107.895 592.769 107 591.891 107 590.808C107 589.724 107.895 588.846 109 588.846C110.105 588.846 111 589.724 111 590.808C111 591.891 110.105 592.769 109 592.769ZM107 610.423C107 611.506 107.895 612.385 109 612.385C110.105 612.385 111 611.506 111 610.423C111 609.34 110.105 608.462 109 608.462C107.895 608.462 107 609.34 107 610.423ZM109 632C107.895 632 107 631.122 107 630.038C107 628.955 107.895 628.077 109 628.077C110.105 628.077 111 628.955 111 630.038C111 631.122 110.105 632 109 632Z" fill="#CFCECE"/>
<path fill-rule="evenodd" clip-rule="evenodd" d="M1346 5.96046e-08C1344.9 5.96046e-08 1344 -0.895431 1344 -2C1344 -3.10457 1344.9 -4 1346 -4C1347.1 -4 1348 -3.10457 1348 -2C1348 -0.895431 1347.1 5.96046e-08 1346 5.96046e-08ZM1346 20C1344.9 20 1344 19.1046 1344 18C1344 16.8954 1344.9 16 1346 16C1347.1 16 1348 16.8954 1348 18C1348 19.1046 1347.1 20 1346 20ZM1344 38C1344 39.1046 1344.9 40 1346 40C1347.1 40 1348 39.1046 1348 38C1348 36.8954 1347.1 36 1346 36C1344.9 36 1344 36.8954 1344 38ZM1346 60C1344.9 60 1344 59.1046 1344 58C1344 56.8954 1344.9 56 1346 56C1347.1 56 1348 56.8954 1348 58C1348 59.1046 1347.1 60 1346 60ZM1344 78C1344 79.1046 1344.9 80 1346 80C1347.1 80 1348 79.1046 1348 78C1348 76.8954 1347.1 76 1346 76C1344.9 76 1344 76.8954 1344 78ZM1346 100C1344.9 100 1344 99.1046 1344 98C1344 96.8954 1344.9 96 1346 96C1347.1 96 1348 96.8954 1348 98C1348 99.1046 1347.1 100 1346 100ZM1324 -2C1324 -0.895431 1324.9 5.96046e-08 1326 5.96046e-08C1327.1 5.96046e-08 1328 -0.895431 1328 -2C1328 -3.10457 1327.1 -4 1326 -4C1324.9 -4 1324 -3.10457 1324 -2ZM1326 20C1324.9 20 1324 19.1046 1324 18C1324 16.8954 1324.9 16 1326 16C1327.1 16 1328 16.8954 1328 18C1328 19.1046 1327.1 20 1326 20ZM1324 38C1324 39.1046 1324.9 40 1326 40C1327.1 40 1328 39.1046 1328 38C1328 36.8954 1327.1 36 1326 36C1324.9 36 1324 36.8954 1324 38ZM1326 60C1324.9 60 1324 59.1046 1324 58C1324 56.8954 1324.9 56 1326 56C1327.1 56 1328 56.8954 1328 58C1328 59.1046 1327.1 60 1326 60ZM1324 78C1324 79.1046 1324.9 80 1326 80C1327.1 80 1328 79.1046 1328 78C1328 76.8954 1327.1 76 1326 76C1324.9 76 1324 76.8954 1324 78ZM1326 100C1324.9 100 1324 99.1046 1324 98C1324 96.8954 1324.9 96 1326 96C1327.1 96 1328 96.8954 1328 98C1328 99.1046 1327.1 100 1326 100Z" fill="#CFCECE"/>
<path fill-rule="evenodd" clip-rule="evenodd" d="M1686.34 359.141C1686.79 358.429 1687.55 358.407 1688.03 359.092L1695 369.077L1701.97 359.092C1702.45 358.407 1703.21 358.429 1703.67 359.141C1704.12 359.853 1704.11 360.985 1703.63 361.67L1696.25 372.251C1695.55 373.25 1694.45 373.25 1693.75 372.251L1686.37 361.67C1685.89 360.985 1685.88 359.853 1686.34 359.141ZM1686.34 343.493C1686.79 342.781 1687.55 342.759 1688.03 343.444L1695 353.429L1701.97 343.444C1702.45 342.759 1703.21 342.781 1703.67 343.493C1704.12 344.205 1704.11 345.337 1703.63 346.022L1696.25 356.603C1695.55 357.602 1694.45 357.602 1693.75 356.603L1686.37 346.022C1685.89 345.337 1685.88 344.205 1686.34 343.493ZM1688.03 327.795C1687.55 327.111 1686.79 327.133 1686.33 327.845C1685.88 328.557 1685.89 329.689 1686.37 330.374L1693.75 340.955C1694.45 341.953 1695.55 341.953 1696.25 340.955L1703.63 330.374C1704.11 329.689 1704.12 328.557 1703.67 327.845C1703.21 327.133 1702.45 327.111 1701.97 327.795L1695 337.781L1688.03 327.795ZM1686.33 312.197C1686.79 311.485 1687.55 311.463 1688.03 312.147L1695 322.133L1701.97 312.147C1702.45 311.463 1703.21 311.485 1703.66 312.197C1704.12 312.909 1704.11 314.041 1703.63 314.726L1696.25 325.307C1695.55 326.305 1694.45 326.305 1693.75 325.307L1686.37 314.726C1685.89 314.041 1685.88 312.909 1686.33 312.197ZM1688.03 296.499C1687.55 295.815 1686.79 295.837 1686.33 296.549C1685.88 297.261 1685.89 298.393 1686.37 299.077L1693.75 309.659C1694.45 310.657 1695.55 310.657 1696.25 309.659L1703.63 299.077C1704.11 298.393 1704.12 297.261 1703.66 296.549C1703.21 295.837 1702.45 295.815 1701.97 296.499L1695 306.485L1688.03 296.499Z" fill="#EAEAEA"/>
<path d="M1788.65 714.676C1788.65 715.602 1787.83 716.353 1786.82 716.353C1785.82 716.353 1785 715.602 1785 714.676C1785 713.751 1785.82 713 1786.82 713C1787.83 713 1788.65 713.751 1788.65 714.676Z" fill="#CFCECE"/>
<path d="M1799.58 714.676C1799.58 715.602 1798.76 716.353 1797.76 716.353C1796.75 716.353 1795.94 715.602 1795.94 714.676C1795.94 713.751 1796.75 713 1797.76 713C1798.76 713 1799.58 713.751 1799.58 714.676Z" fill="#CFCECE"/>
<path d="M1810.52 714.676C1810.52 715.602 1809.7 716.353 1808.69 716.353C1807.69 716.353 1806.87 715.602 1806.87 714.676C1806.87 713.751 1807.69 713 1808.69 713C1809.7 713 1810.52 713.751 1810.52 714.676Z" fill="#CFCECE"/>
<path d="M1821.45 714.676C1821.45 715.602 1820.64 716.353 1819.63 716.353C1818.62 716.353 1817.81 715.602 1817.81 714.676C1817.81 713.751 1818.62 713 1819.63 713C1820.64 713 1821.45 713.751 1821.45 714.676Z" fill="#CFCECE"/>
<path d="M1832.39 714.676C1832.39 715.602 1831.57 716.353 1830.56 716.353C1829.56 716.353 1828.74 715.602 1828.74 714.676C1828.74 713.751 1829.56 713 1830.56 713C1831.57 713 1832.39 713.751 1832.39 714.676Z" fill="#CFCECE"/>
<path d="M1843.32 714.676C1843.32 715.602 1842.51 716.353 1841.5 716.353C1840.49 716.353 1839.68 715.602 1839.68 714.676C1839.68 713.751 1840.49 713 1841.5 713C1842.51 713 1843.32 713.751 1843.32 714.676Z" fill="#CFCECE"/>
<path d="M1854.26 714.676C1854.26 715.602 1853.44 716.353 1852.44 716.353C1851.43 716.353 1850.61 715.602 1850.61 714.676C1850.61 713.751 1851.43 713 1852.44 713C1853.44 713 1854.26 713.751 1854.26 714.676Z" fill="#CFCECE"/>
<path d="M1865.19 714.676C1865.19 715.602 1864.38 716.353 1863.37 716.353C1862.36 716.353 1861.55 715.602 1861.55 714.676C1861.55 713.751 1862.36 713 1863.37 713C1864.38 713 1865.19 713.751 1865.19 714.676Z" fill="#CFCECE"/>
<path d="M1876.13 714.676C1876.13 715.602 1875.31 716.353 1874.31 716.353C1873.3 716.353 1872.48 715.602 1872.48 714.676C1872.48 713.751 1873.3 713 1874.31 713C1875.31 713 1876.13 713.751 1876.13 714.676Z" fill="#CFCECE"/>
<path d="M1887.06 714.676C1887.06 715.602 1886.25 716.353 1885.24 716.353C1884.24 716.353 1883.42 715.602 1883.42 714.676C1883.42 713.751 1884.24 713 1885.24 713C1886.25 713 1887.06 713.751 1887.06 714.676Z" fill="#CFCECE"/>
<path d="M1898 714.676C1898 715.602 1897.18 716.353 1896.18 716.353C1895.17 716.353 1894.35 715.602 1894.35 714.676C1894.35 713.751 1895.17 713 1896.18 713C1897.18 713 1898 713.751 1898 714.676Z" fill="#CFCECE"/>
<path d="M1788.65 724.735C1788.65 725.661 1787.83 726.412 1786.82 726.412C1785.82 726.412 1785 725.661 1785 724.735C1785 723.809 1785.82 723.059 1786.82 723.059C1787.83 723.059 1788.65 723.809 1788.65 724.735Z" fill="#CFCECE"/>
<path d="M1799.58 724.735C1799.58 725.661 1798.76 726.412 1797.76 726.412C1796.75 726.412 1795.94 725.661 1795.94 724.735C1795.94 723.809 1796.75 723.059 1797.76 723.059C1798.76 723.059 1799.58 723.809 1799.58 724.735Z" fill="#CFCECE"/>
<path d="M1810.52 724.735C1810.52 725.661 1809.7 726.412 1808.69 726.412C1807.69 726.412 1806.87 725.661 1806.87 724.735C1806.87 723.809 1807.69 723.059 1808.69 723.059C1809.7 723.059 1810.52 723.809 1810.52 724.735Z" fill="#CFCECE"/>
<path d="M1821.45 724.735C1821.45 725.661 1820.64 726.412 1819.63 726.412C1818.62 726.412 1817.81 725.661 1817.81 724.735C1817.81 723.809 1818.62 723.059 1819.63 723.059C1820.64 723.059 1821.45 723.809 1821.45 724.735Z" fill="#CFCECE"/>
<path d="M1832.39 724.735C1832.39 725.661 1831.57 726.412 1830.56 726.412C1829.56 726.412 1828.74 725.661 1828.74 724.735C1828.74 723.809 1829.56 723.059 1830.56 723.059C1831.57 723.059 1832.39 723.809 1832.39 724.735Z" fill="#CFCECE"/>
<path d="M1843.32 724.735C1843.32 725.661 1842.51 726.412 1841.5 726.412C1840.49 726.412 1839.68 725.661 1839.68 724.735C1839.68 723.809 1840.49 723.059 1841.5 723.059C1842.51 723.059 1843.32 723.809 1843.32 724.735Z" fill="#CFCECE"/>
<path d="M1854.26 724.735C1854.26 725.661 1853.44 726.412 1852.44 726.412C1851.43 726.412 1850.61 725.661 1850.61 724.735C1850.61 723.809 1851.43 723.059 1852.44 723.059C1853.44 723.059 1854.26 723.809 1854.26 724.735Z" fill="#CFCECE"/>
<path d="M1865.19 724.735C1865.19 725.661 1864.38 726.412 1863.37 726.412C1862.36 726.412 1861.55 725.661 1861.55 724.735C1861.55 723.809 1862.36 723.059 1863.37 723.059C1864.38 723.059 1865.19 723.809 1865.19 724.735Z" fill="#CFCECE"/>
<path d="M1876.13 724.735C1876.13 725.661 1875.31 726.412 1874.31 726.412C1873.3 726.412 1872.48 725.661 1872.48 724.735C1872.48 723.809 1873.3 723.059 1874.31 723.059C1875.31 723.059 1876.13 723.809 1876.13 724.735Z" fill="#CFCECE"/>
<path d="M1887.06 724.735C1887.06 725.661 1886.25 726.412 1885.24 726.412C1884.24 726.412 1883.42 725.661 1883.42 724.735C1883.42 723.809 1884.24 723.059 1885.24 723.059C1886.25 723.059 1887.06 723.809 1887.06 724.735Z" fill="#CFCECE"/>
<path d="M1898 724.735C1898 725.661 1897.18 726.412 1896.18 726.412C1895.17 726.412 1894.35 725.661 1894.35 724.735C1894.35 723.809 1895.17 723.059 1896.18 723.059C1897.18 723.059 1898 723.809 1898 724.735Z" fill="#CFCECE"/>
<path d="M1788.65 734.794C1788.65 735.72 1787.83 736.471 1786.82 736.471C1785.82 736.471 1785 735.72 1785 734.794C1785 733.868 1785.82 733.118 1786.82 733.118C1787.83 733.118 1788.65 733.868 1788.65 734.794Z" fill="#CFCECE"/>
<path d="M1799.58 734.794C1799.58 735.72 1798.76 736.471 1797.76 736.471C1796.75 736.471 1795.94 735.72 1795.94 734.794C1795.94 733.868 1796.75 733.118 1797.76 733.118C1798.76 733.118 1799.58 733.868 1799.58 734.794Z" fill="#CFCECE"/>
<path d="M1810.52 734.794C1810.52 735.72 1809.7 736.471 1808.69 736.471C1807.69 736.471 1806.87 735.72 1806.87 734.794C1806.87 733.868 1807.69 733.118 1808.69 733.118C1809.7 733.118 1810.52 733.868 1810.52 734.794Z" fill="#CFCECE"/>
<path d="M1821.45 734.794C1821.45 735.72 1820.64 736.471 1819.63 736.471C1818.62 736.471 1817.81 735.72 1817.81 734.794C1817.81 733.868 1818.62 733.118 1819.63 733.118C1820.64 733.118 1821.45 733.868 1821.45 734.794Z" fill="#CFCECE"/>
<path d="M1832.39 734.794C1832.39 735.72 1831.57 736.471 1830.56 736.471C1829.56 736.471 1828.74 735.72 1828.74 734.794C1828.74 733.868 1829.56 733.118 1830.56 733.118C1831.57 733.118 1832.39 733.868 1832.39 734.794Z" fill="#CFCECE"/>
<path d="M1843.32 734.794C1843.32 735.72 1842.51 736.471 1841.5 736.471C1840.49 736.471 1839.68 735.72 1839.68 734.794C1839.68 733.868 1840.49 733.118 1841.5 733.118C1842.51 733.118 1843.32 733.868 1843.32 734.794Z" fill="#CFCECE"/>
<path d="M1854.26 734.794C1854.26 735.72 1853.44 736.471 1852.44 736.471C1851.43 736.471 1850.61 735.72 1850.61 734.794C1850.61 733.868 1851.43 733.118 1852.44 733.118C1853.44 733.118 1854.26 733.868 1854.26 734.794Z" fill="#CFCECE"/>
<path d="M1865.19 734.794C1865.19 735.72 1864.38 736.471 1863.37 736.471C1862.36 736.471 1861.55 735.72 1861.55 734.794C1861.55 733.868 1862.36 733.118 1863.37 733.118C1864.38 733.118 1865.19 733.868 1865.19 734.794Z" fill="#CFCECE"/>
<path d="M1876.13 734.794C1876.13 735.72 1875.31 736.471 1874.31 736.471C1873.3 736.471 1872.48 735.72 1872.48 734.794C1872.48 733.868 1873.3 733.118 1874.31 733.118C1875.31 733.118 1876.13 733.868 1876.13 734.794Z" fill="#CFCECE"/>
<path d="M1887.06 734.794C1887.06 735.72 1886.25 736.471 1885.24 736.471C1884.24 736.471 1883.42 735.72 1883.42 734.794C1883.42 733.868 1884.24 733.118 1885.24 733.118C1886.25 733.118 1887.06 733.868 1887.06 734.794Z" fill="#CFCECE"/>
<path d="M1898 734.794C1898 735.72 1897.18 736.471 1896.18 736.471C1895.17 736.471 1894.35 735.72 1894.35 734.794C1894.35 733.868 1895.17 733.118 1896.18 733.118C1897.18 733.118 1898 733.868 1898 734.794Z" fill="#CFCECE"/>
<path d="M1788.65 744.853C1788.65 745.779 1787.83 746.529 1786.82 746.529C1785.82 746.529 1785 745.779 1785 744.853C1785 743.927 1785.82 743.176 1786.82 743.176C1787.83 743.176 1788.65 743.927 1788.65 744.853Z" fill="#CFCECE"/>
<path d="M1799.58 744.853C1799.58 745.779 1798.76 746.529 1797.76 746.529C1796.75 746.529 1795.94 745.779 1795.94 744.853C1795.94 743.927 1796.75 743.176 1797.76 743.176C1798.76 743.176 1799.58 743.927 1799.58 744.853Z" fill="#CFCECE"/>
<path d="M1810.52 744.853C1810.52 745.779 1809.7 746.529 1808.69 746.529C1807.69 746.529 1806.87 745.779 1806.87 744.853C1806.87 743.927 1807.69 743.176 1808.69 743.176C1809.7 743.176 1810.52 743.927 1810.52 744.853Z" fill="#CFCECE"/>
<path d="M1821.45 744.853C1821.45 745.779 1820.64 746.529 1819.63 746.529C1818.62 746.529 1817.81 745.779 1817.81 744.853C1817.81 743.927 1818.62 743.176 1819.63 743.176C1820.64 743.176 1821.45 743.927 1821.45 744.853Z" fill="#CFCECE"/>
<path d="M1832.39 744.853C1832.39 745.779 1831.57 746.529 1830.56 746.529C1829.56 746.529 1828.74 745.779 1828.74 744.853C1828.74 743.927 1829.56 743.176 1830.56 743.176C1831.57 743.176 1832.39 743.927 1832.39 744.853Z" fill="#CFCECE"/>
<path d="M1843.32 744.853C1843.32 745.779 1842.51 746.529 1841.5 746.529C1840.49 746.529 1839.68 745.779 1839.68 744.853C1839.68 743.927 1840.49 743.176 1841.5 743.176C1842.51 743.176 1843.32 743.927 1843.32 744.853Z" fill="#CFCECE"/>
<path d="M1854.26 744.853C1854.26 745.779 1853.44 746.529 1852.44 746.529C1851.43 746.529 1850.61 745.779 1850.61 744.853C1850.61 743.927 1851.43 743.176 1852.44 743.176C1853.44 743.176 1854.26 743.927 1854.26 744.853Z" fill="#CFCECE"/>
<path d="M1865.19 744.853C1865.19 745.779 1864.38 746.529 1863.37 746.529C1862.36 746.529 1861.55 745.779 1861.55 744.853C1861.55 743.927 1862.36 743.176 1863.37 743.176C1864.38 743.176 1865.19 743.927 1865.19 744.853Z" fill="#CFCECE"/>
<path d="M1876.13 744.853C1876.13 745.779 1875.31 746.529 1874.31 746.529C1873.3 746.529 1872.48 745.779 1872.48 744.853C1872.48 743.927 1873.3 743.176 1874.31 743.176C1875.31 743.176 1876.13 743.927 1876.13 744.853Z" fill="#CFCECE"/>
<path d="M1887.06 744.853C1887.06 745.779 1886.25 746.529 1885.24 746.529C1884.24 746.529 1883.42 745.779 1883.42 744.853C1883.42 743.927 1884.24 743.176 1885.24 743.176C1886.25 743.176 1887.06 743.927 1887.06 744.853Z" fill="#CFCECE"/>
<path d="M1898 744.853C1898 745.779 1897.18 746.529 1896.18 746.529C1895.17 746.529 1894.35 745.779 1894.35 744.853C1894.35 743.927 1895.17 743.176 1896.18 743.176C1897.18 743.176 1898 743.927 1898 744.853Z" fill="#CFCECE"/>
<path d="M1788.65 754.912C1788.65 755.838 1787.83 756.588 1786.82 756.588C1785.82 756.588 1785 755.838 1785 754.912C1785 753.986 1785.82 753.235 1786.82 753.235C1787.83 753.235 1788.65 753.986 1788.65 754.912Z" fill="#CFCECE"/>
<path d="M1799.58 754.912C1799.58 755.838 1798.76 756.588 1797.76 756.588C1796.75 756.588 1795.94 755.838 1795.94 754.912C1795.94 753.986 1796.75 753.235 1797.76 753.235C1798.76 753.235 1799.58 753.986 1799.58 754.912Z" fill="#CFCECE"/>
<path d="M1810.52 754.912C1810.52 755.838 1809.7 756.588 1808.69 756.588C1807.69 756.588 1806.87 755.838 1806.87 754.912C1806.87 753.986 1807.69 753.235 1808.69 753.235C1809.7 753.235 1810.52 753.986 1810.52 754.912Z" fill="#CFCECE"/>
<path d="M1821.45 754.912C1821.45 755.838 1820.64 756.588 1819.63 756.588C1818.62 756.588 1817.81 755.838 1817.81 754.912C1817.81 753.986 1818.62 753.235 1819.63 753.235C1820.64 753.235 1821.45 753.986 1821.45 754.912Z" fill="#CFCECE"/>
<path d="M1832.39 754.912C1832.39 755.838 1831.57 756.588 1830.56 756.588C1829.56 756.588 1828.74 755.838 1828.74 754.912C1828.74 753.986 1829.56 753.235 1830.56 753.235C1831.57 753.235 1832.39 753.986 1832.39 754.912Z" fill="#CFCECE"/>
<path d="M1843.32 754.912C1843.32 755.838 1842.51 756.588 1841.5 756.588C1840.49 756.588 1839.68 755.838 1839.68 754.912C1839.68 753.986 1840.49 753.235 1841.5 753.235C1842.51 753.235 1843.32 753.986 1843.32 754.912Z" fill="#CFCECE"/>
<path d="M1854.26 754.912C1854.26 755.838 1853.44 756.588 1852.44 756.588C1851.43 756.588 1850.61 755.838 1850.61 754.912C1850.61 753.986 1851.43 753.235 1852.44 753.235C1853.44 753.235 1854.26 753.986 1854.26 754.912Z" fill="#CFCECE"/>
<path d="M1865.19 754.912C1865.19 755.838 1864.38 756.588 1863.37 756.588C1862.36 756.588 1861.55 755.838 1861.55 754.912C1861.55 753.986 1862.36 753.235 1863.37 753.235C1864.38 753.235 1865.19 753.986 1865.19 754.912Z" fill="#CFCECE"/>
<path d="M1876.13 754.912C1876.13 755.838 1875.31 756.588 1874.31 756.588C1873.3 756.588 1872.48 755.838 1872.48 754.912C1872.48 753.986 1873.3 753.235 1874.31 753.235C1875.31 753.235 1876.13 753.986 1876.13 754.912Z" fill="#CFCECE"/>
<path d="M1887.06 754.912C1887.06 755.838 1886.25 756.588 1885.24 756.588C1884.24 756.588 1883.42 755.838 1883.42 754.912C1883.42 753.986 1884.24 753.235 1885.24 753.235C1886.25 753.235 1887.06 753.986 1887.06 754.912Z" fill="#CFCECE"/>
<path d="M1898 754.912C1898 755.838 1897.18 756.588 1896.18 756.588C1895.17 756.588 1894.35 755.838 1894.35 754.912C1894.35 753.986 1895.17 753.235 1896.18 753.235C1897.18 753.235 1898 753.986 1898 754.912Z" fill="#CFCECE"/>
<path d="M1788.65 764.971C1788.65 765.896 1787.83 766.647 1786.82 766.647C1785.82 766.647 1785 765.896 1785 764.971C1785 764.045 1785.82 763.294 1786.82 763.294C1787.83 763.294 1788.65 764.045 1788.65 764.971Z" fill="#CFCECE"/>
<path d="M1799.58 764.971C1799.58 765.896 1798.76 766.647 1797.76 766.647C1796.75 766.647 1795.94 765.896 1795.94 764.971C1795.94 764.045 1796.75 763.294 1797.76 763.294C1798.76 763.294 1799.58 764.045 1799.58 764.971Z" fill="#CFCECE"/>
<path d="M1810.52 764.971C1810.52 765.896 1809.7 766.647 1808.69 766.647C1807.69 766.647 1806.87 765.896 1806.87 764.971C1806.87 764.045 1807.69 763.294 1808.69 763.294C1809.7 763.294 1810.52 764.045 1810.52 764.971Z" fill="#CFCECE"/>
<path d="M1821.45 764.971C1821.45 765.896 1820.64 766.647 1819.63 766.647C1818.62 766.647 1817.81 765.896 1817.81 764.971C1817.81 764.045 1818.62 763.294 1819.63 763.294C1820.64 763.294 1821.45 764.045 1821.45 764.971Z" fill="#CFCECE"/>
<path d="M1832.39 764.971C1832.39 765.896 1831.57 766.647 1830.56 766.647C1829.56 766.647 1828.74 765.896 1828.74 764.971C1828.74 764.045 1829.56 763.294 1830.56 763.294C1831.57 763.294 1832.39 764.045 1832.39 764.971Z" fill="#CFCECE"/>
<path d="M1843.32 764.971C1843.32 765.896 1842.51 766.647 1841.5 766.647C1840.49 766.647 1839.68 765.896 1839.68 764.971C1839.68 764.045 1840.49 763.294 1841.5 763.294C1842.51 763.294 1843.32 764.045 1843.32 764.971Z" fill="#CFCECE"/>
<path d="M1854.26 764.971C1854.26 765.896 1853.44 766.647 1852.44 766.647C1851.43 766.647 1850.61 765.896 1850.61 764.971C1850.61 764.045 1851.43 763.294 1852.44 763.294C1853.44 763.294 1854.26 764.045 1854.26 764.971Z" fill="#CFCECE"/>
<path d="M1865.19 764.971C1865.19 765.896 1864.38 766.647 1863.37 766.647C1862.36 766.647 1861.55 765.896 1861.55 764.971C1861.55 764.045 1862.36 763.294 1863.37 763.294C1864.38 763.294 1865.19 764.045 1865.19 764.971Z" fill="#CFCECE"/>
<path d="M1876.13 764.971C1876.13 765.896 1875.31 766.647 1874.31 766.647C1873.3 766.647 1872.48 765.896 1872.48 764.971C1872.48 764.045 1873.3 763.294 1874.31 763.294C1875.31 763.294 1876.13 764.045 1876.13 764.971Z" fill="#CFCECE"/>
<path d="M1887.06 764.971C1887.06 765.896 1886.25 766.647 1885.24 766.647C1884.24 766.647 1883.42 765.896 1883.42 764.971C1883.42 764.045 1884.24 763.294 1885.24 763.294C1886.25 763.294 1887.06 764.045 1887.06 764.971Z" fill="#CFCECE"/>
<path d="M1898 764.971C1898 765.896 1897.18 766.647 1896.18 766.647C1895.17 766.647 1894.35 765.896 1894.35 764.971C1894.35 764.045 1895.17 763.294 1896.18 763.294C1897.18 763.294 1898 764.045 1898 764.971Z" fill="#CFCECE"/>
<path d="M1788.65 775.029C1788.65 775.955 1787.83 776.706 1786.82 776.706C1785.82 776.706 1785 775.955 1785 775.029C1785 774.104 1785.82 773.353 1786.82 773.353C1787.83 773.353 1788.65 774.104 1788.65 775.029Z" fill="#CFCECE"/>
<path d="M1799.58 775.029C1799.58 775.955 1798.76 776.706 1797.76 776.706C1796.75 776.706 1795.94 775.955 1795.94 775.029C1795.94 774.104 1796.75 773.353 1797.76 773.353C1798.76 773.353 1799.58 774.104 1799.58 775.029Z" fill="#CFCECE"/>
<path d="M1810.52 775.029C1810.52 775.955 1809.7 776.706 1808.69 776.706C1807.69 776.706 1806.87 775.955 1806.87 775.029C1806.87 774.104 1807.69 773.353 1808.69 773.353C1809.7 773.353 1810.52 774.104 1810.52 775.029Z" fill="#CFCECE"/>
<path d="M1821.45 775.029C1821.45 775.955 1820.64 776.706 1819.63 776.706C1818.62 776.706 1817.81 775.955 1817.81 775.029C1817.81 774.104 1818.62 773.353 1819.63 773.353C1820.64 773.353 1821.45 774.104 1821.45 775.029Z" fill="#CFCECE"/>
<path d="M1832.39 775.029C1832.39 775.955 1831.57 776.706 1830.56 776.706C1829.56 776.706 1828.74 775.955 1828.74 775.029C1828.74 774.104 1829.56 773.353 1830.56 773.353C1831.57 773.353 1832.39 774.104 1832.39 775.029Z" fill="#CFCECE"/>
<path d="M1843.32 775.029C1843.32 775.955 1842.51 776.706 1841.5 776.706C1840.49 776.706 1839.68 775.955 1839.68 775.029C1839.68 774.104 1840.49 773.353 1841.5 773.353C1842.51 773.353 1843.32 774.104 1843.32 775.029Z" fill="#CFCECE"/>
<path d="M1854.26 775.029C1854.26 775.955 1853.44 776.706 1852.44 776.706C1851.43 776.706 1850.61 775.955 1850.61 775.029C1850.61 774.104 1851.43 773.353 1852.44 773.353C1853.44 773.353 1854.26 774.104 1854.26 775.029Z" fill="#CFCECE"/>
<path d="M1865.19 775.029C1865.19 775.955 1864.38 776.706 1863.37 776.706C1862.36 776.706 1861.55 775.955 1861.55 775.029C1861.55 774.104 1862.36 773.353 1863.37 773.353C1864.38 773.353 1865.19 774.104 1865.19 775.029Z" fill="#CFCECE"/>
<path d="M1876.13 775.029C1876.13 775.955 1875.31 776.706 1874.31 776.706C1873.3 776.706 1872.48 775.955 1872.48 775.029C1872.48 774.104 1873.3 773.353 1874.31 773.353C1875.31 773.353 1876.13 774.104 1876.13 775.029Z" fill="#CFCECE"/>
<path d="M1887.06 775.029C1887.06 775.955 1886.25 776.706 1885.24 776.706C1884.24 776.706 1883.42 775.955 1883.42 775.029C1883.42 774.104 1884.24 773.353 1885.24 773.353C1886.25 773.353 1887.06 774.104 1887.06 775.029Z" fill="#CFCECE"/>
<path d="M1898 775.029C1898 775.955 1897.18 776.706 1896.18 776.706C1895.17 776.706 1894.35 775.955 1894.35 775.029C1894.35 774.104 1895.17 773.353 1896.18 773.353C1897.18 773.353 1898 774.104 1898 775.029Z" fill="#CFCECE"/>
<path d="M1788.65 785.088C1788.65 786.014 1787.83 786.765 1786.82 786.765C1785.82 786.765 1785 786.014 1785 785.088C1785 784.162 1785.82 783.412 1786.82 783.412C1787.83 783.412 1788.65 784.162 1788.65 785.088Z" fill="#CFCECE"/>
<path d="M1799.58 785.088C1799.58 786.014 1798.76 786.765 1797.76 786.765C1796.75 786.765 1795.94 786.014 1795.94 785.088C1795.94 784.162 1796.75 783.412 1797.76 783.412C1798.76 783.412 1799.58 784.162 1799.58 785.088Z" fill="#CFCECE"/>
<path d="M1810.52 785.088C1810.52 786.014 1809.7 786.765 1808.69 786.765C1807.69 786.765 1806.87 786.014 1806.87 785.088C1806.87 784.162 1807.69 783.412 1808.69 783.412C1809.7 783.412 1810.52 784.162 1810.52 785.088Z" fill="#CFCECE"/>
<path d="M1821.45 785.088C1821.45 786.014 1820.64 786.765 1819.63 786.765C1818.62 786.765 1817.81 786.014 1817.81 785.088C1817.81 784.162 1818.62 783.412 1819.63 783.412C1820.64 783.412 1821.45 784.162 1821.45 785.088Z" fill="#CFCECE"/>
<path d="M1832.39 785.088C1832.39 786.014 1831.57 786.765 1830.56 786.765C1829.56 786.765 1828.74 786.014 1828.74 785.088C1828.74 784.162 1829.56 783.412 1830.56 783.412C1831.57 783.412 1832.39 784.162 1832.39 785.088Z" fill="#CFCECE"/>
<path d="M1843.32 785.088C1843.32 786.014 1842.51 786.765 1841.5 786.765C1840.49 786.765 1839.68 786.014 1839.68 785.088C1839.68 784.162 1840.49 783.412 1841.5 783.412C1842.51 783.412 1843.32 784.162 1843.32 785.088Z" fill="#CFCECE"/>
<path d="M1854.26 785.088C1854.26 786.014 1853.44 786.765 1852.44 786.765C1851.43 786.765 1850.61 786.014 1850.61 785.088C1850.61 784.162 1851.43 783.412 1852.44 783.412C1853.44 783.412 1854.26 784.162 1854.26 785.088Z" fill="#CFCECE"/>
<path d="M1865.19 785.088C1865.19 786.014 1864.38 786.765 1863.37 786.765C1862.36 786.765 1861.55 786.014 1861.55 785.088C1861.55 784.162 1862.36 783.412 1863.37 783.412C1864.38 783.412 1865.19 784.162 1865.19 785.088Z" fill="#CFCECE"/>
<path d="M1876.13 785.088C1876.13 786.014 1875.31 786.765 1874.31 786.765C1873.3 786.765 1872.48 786.014 1872.48 785.088C1872.48 784.162 1873.3 783.412 1874.31 783.412C1875.31 783.412 1876.13 784.162 1876.13 785.088Z" fill="#CFCECE"/>
<path d="M1887.06 785.088C1887.06 786.014 1886.25 786.765 1885.24 786.765C1884.24 786.765 1883.42 786.014 1883.42 785.088C1883.42 784.162 1884.24 783.412 1885.24 783.412C1886.25 783.412 1887.06 784.162 1887.06 785.088Z" fill="#CFCECE"/>
<path d="M1898 785.088C1898 786.014 1897.18 786.765 1896.18 786.765C1895.17 786.765 1894.35 786.014 1894.35 785.088C1894.35 784.162 1895.17 783.412 1896.18 783.412C1897.18 783.412 1898 784.162 1898 785.088Z" fill="#CFCECE"/>
<path d="M1788.65 795.147C1788.65 796.073 1787.83 796.824 1786.82 796.824C1785.82 796.824 1785 796.073 1785 795.147C1785 794.221 1785.82 793.471 1786.82 793.471C1787.83 793.471 1788.65 794.221 1788.65 795.147Z" fill="#CFCECE"/>
<path d="M1799.58 795.147C1799.58 796.073 1798.76 796.824 1797.76 796.824C1796.75 796.824 1795.94 796.073 1795.94 795.147C1795.94 794.221 1796.75 793.471 1797.76 793.471C1798.76 793.471 1799.58 794.221 1799.58 795.147Z" fill="#CFCECE"/>
<path d="M1810.52 795.147C1810.52 796.073 1809.7 796.824 1808.69 796.824C1807.69 796.824 1806.87 796.073 1806.87 795.147C1806.87 794.221 1807.69 793.471 1808.69 793.471C1809.7 793.471 1810.52 794.221 1810.52 795.147Z" fill="#CFCECE"/>
<path d="M1821.45 795.147C1821.45 796.073 1820.64 796.824 1819.63 796.824C1818.62 796.824 1817.81 796.073 1817.81 795.147C1817.81 794.221 1818.62 793.471 1819.63 793.471C1820.64 793.471 1821.45 794.221 1821.45 795.147Z" fill="#CFCECE"/>
<path d="M1832.39 795.147C1832.39 796.073 1831.57 796.824 1830.56 796.824C1829.56 796.824 1828.74 796.073 1828.74 795.147C1828.74 794.221 1829.56 793.471 1830.56 793.471C1831.57 793.471 1832.39 794.221 1832.39 795.147Z" fill="#CFCECE"/>
<path d="M1843.32 795.147C1843.32 796.073 1842.51 796.824 1841.5 796.824C1840.49 796.824 1839.68 796.073 1839.68 795.147C1839.68 794.221 1840.49 793.471 1841.5 793.471C1842.51 793.471 1843.32 794.221 1843.32 795.147Z" fill="#CFCECE"/>
<path d="M1854.26 795.147C1854.26 796.073 1853.44 796.824 1852.44 796.824C1851.43 796.824 1850.61 796.073 1850.61 795.147C1850.61 794.221 1851.43 793.471 1852.44 793.471C1853.44 793.471 1854.26 794.221 1854.26 795.147Z" fill="#CFCECE"/>
<path d="M1865.19 795.147C1865.19 796.073 1864.38 796.824 1863.37 796.824C1862.36 796.824 1861.55 796.073 1861.55 795.147C1861.55 794.221 1862.36 793.471 1863.37 793.471C1864.38 793.471 1865.19 794.221 1865.19 795.147Z" fill="#CFCECE"/>
<path d="M1876.13 795.147C1876.13 796.073 1875.31 796.824 1874.31 796.824C1873.3 796.824 1872.48 796.073 1872.48 795.147C1872.48 794.221 1873.3 793.471 1874.31 793.471C1875.31 793.471 1876.13 794.221 1876.13 795.147Z" fill="#CFCECE"/>
<path d="M1887.06 795.147C1887.06 796.073 1886.25 796.824 1885.24 796.824C1884.24 796.824 1883.42 796.073 1883.42 795.147C1883.42 794.221 1884.24 793.471 1885.24 793.471C1886.25 793.471 1887.06 794.221 1887.06 795.147Z" fill="#CFCECE"/>
<path d="M1898 795.147C1898 796.073 1897.18 796.824 1896.18 796.824C1895.17 796.824 1894.35 796.073 1894.35 795.147C1894.35 794.221 1895.17 793.471 1896.18 793.471C1897.18 793.471 1898 794.221 1898 795.147Z" fill="#CFCECE"/>
<path d="M1788.65 805.206C1788.65 806.132 1787.83 806.882 1786.82 806.882C1785.82 806.882 1785 806.132 1785 805.206C1785 804.28 1785.82 803.529 1786.82 803.529C1787.83 803.529 1788.65 804.28 1788.65 805.206Z" fill="#CFCECE"/>
<path d="M1799.58 805.206C1799.58 806.132 1798.76 806.882 1797.76 806.882C1796.75 806.882 1795.94 806.132 1795.94 805.206C1795.94 804.28 1796.75 803.529 1797.76 803.529C1798.76 803.529 1799.58 804.28 1799.58 805.206Z" fill="#CFCECE"/>
<path d="M1810.52 805.206C1810.52 806.132 1809.7 806.882 1808.69 806.882C1807.69 806.882 1806.87 806.132 1806.87 805.206C1806.87 804.28 1807.69 803.529 1808.69 803.529C1809.7 803.529 1810.52 804.28 1810.52 805.206Z" fill="#CFCECE"/>
<path d="M1821.45 805.206C1821.45 806.132 1820.64 806.882 1819.63 806.882C1818.62 806.882 1817.81 806.132 1817.81 805.206C1817.81 804.28 1818.62 803.529 1819.63 803.529C1820.64 803.529 1821.45 804.28 1821.45 805.206Z" fill="#CFCECE"/>
<path d="M1832.39 805.206C1832.39 806.132 1831.57 806.882 1830.56 806.882C1829.56 806.882 1828.74 806.132 1828.74 805.206C1828.74 804.28 1829.56 803.529 1830.56 803.529C1831.57 803.529 1832.39 804.28 1832.39 805.206Z" fill="#CFCECE"/>
<path d="M1843.32 805.206C1843.32 806.132 1842.51 806.882 1841.5 806.882C1840.49 806.882 1839.68 806.132 1839.68 805.206C1839.68 804.28 1840.49 803.529 1841.5 803.529C1842.51 803.529 1843.32 804.28 1843.32 805.206Z" fill="#CFCECE"/>
<path d="M1854.26 805.206C1854.26 806.132 1853.44 806.882 1852.44 806.882C1851.43 806.882 1850.61 806.132 1850.61 805.206C1850.61 804.28 1851.43 803.529 1852.44 803.529C1853.44 803.529 1854.26 804.28 1854.26 805.206Z" fill="#CFCECE"/>
<path d="M1865.19 805.206C1865.19 806.132 1864.38 806.882 1863.37 806.882C1862.36 806.882 1861.55 806.132 1861.55 805.206C1861.55 804.28 1862.36 803.529 1863.37 803.529C1864.38 803.529 1865.19 804.28 1865.19 805.206Z" fill="#CFCECE"/>
<path d="M1876.13 805.206C1876.13 806.132 1875.31 806.882 1874.31 806.882C1873.3 806.882 1872.48 806.132 1872.48 805.206C1872.48 804.28 1873.3 803.529 1874.31 803.529C1875.31 803.529 1876.13 804.28 1876.13 805.206Z" fill="#CFCECE"/>
<path d="M1887.06 805.206C1887.06 806.132 1886.25 806.882 1885.24 806.882C1884.24 806.882 1883.42 806.132 1883.42 805.206C1883.42 804.28 1884.24 803.529 1885.24 803.529C1886.25 803.529 1887.06 804.28 1887.06 805.206Z" fill="#CFCECE"/>
<path d="M1898 805.206C1898 806.132 1897.18 806.882 1896.18 806.882C1895.17 806.882 1894.35 806.132 1894.35 805.206C1894.35 804.28 1895.17 803.529 1896.18 803.529C1897.18 803.529 1898 804.28 1898 805.206Z" fill="#CFCECE"/>
<path d="M1788.65 815.265C1788.65 816.191 1787.83 816.941 1786.82 816.941C1785.82 816.941 1785 816.191 1785 815.265C1785 814.339 1785.82 813.588 1786.82 813.588C1787.83 813.588 1788.65 814.339 1788.65 815.265Z" fill="#CFCECE"/>
<path d="M1799.58 815.265C1799.58 816.191 1798.76 816.941 1797.76 816.941C1796.75 816.941 1795.94 816.191 1795.94 815.265C1795.94 814.339 1796.75 813.588 1797.76 813.588C1798.76 813.588 1799.58 814.339 1799.58 815.265Z" fill="#CFCECE"/>
<path d="M1810.52 815.265C1810.52 816.191 1809.7 816.941 1808.69 816.941C1807.69 816.941 1806.87 816.191 1806.87 815.265C1806.87 814.339 1807.69 813.588 1808.69 813.588C1809.7 813.588 1810.52 814.339 1810.52 815.265Z" fill="#CFCECE"/>
<path d="M1821.45 815.265C1821.45 816.191 1820.64 816.941 1819.63 816.941C1818.62 816.941 1817.81 816.191 1817.81 815.265C1817.81 814.339 1818.62 813.588 1819.63 813.588C1820.64 813.588 1821.45 814.339 1821.45 815.265Z" fill="#CFCECE"/>
<path d="M1832.39 815.265C1832.39 816.191 1831.57 816.941 1830.56 816.941C1829.56 816.941 1828.74 816.191 1828.74 815.265C1828.74 814.339 1829.56 813.588 1830.56 813.588C1831.57 813.588 1832.39 814.339 1832.39 815.265Z" fill="#CFCECE"/>
<path d="M1843.32 815.265C1843.32 816.191 1842.51 816.941 1841.5 816.941C1840.49 816.941 1839.68 816.191 1839.68 815.265C1839.68 814.339 1840.49 813.588 1841.5 813.588C1842.51 813.588 1843.32 814.339 1843.32 815.265Z" fill="#CFCECE"/>
<path d="M1854.26 815.265C1854.26 816.191 1853.44 816.941 1852.44 816.941C1851.43 816.941 1850.61 816.191 1850.61 815.265C1850.61 814.339 1851.43 813.588 1852.44 813.588C1853.44 813.588 1854.26 814.339 1854.26 815.265Z" fill="#CFCECE"/>
<path d="M1865.19 815.265C1865.19 816.191 1864.38 816.941 1863.37 816.941C1862.36 816.941 1861.55 816.191 1861.55 815.265C1861.55 814.339 1862.36 813.588 1863.37 813.588C1864.38 813.588 1865.19 814.339 1865.19 815.265Z" fill="#CFCECE"/>
<path d="M1876.13 815.265C1876.13 816.191 1875.31 816.941 1874.31 816.941C1873.3 816.941 1872.48 816.191 1872.48 815.265C1872.48 814.339 1873.3 813.588 1874.31 813.588C1875.31 813.588 1876.13 814.339 1876.13 815.265Z" fill="#CFCECE"/>
<path d="M1887.06 815.265C1887.06 816.191 1886.25 816.941 1885.24 816.941C1884.24 816.941 1883.42 816.191 1883.42 815.265C1883.42 814.339 1884.24 813.588 1885.24 813.588C1886.25 813.588 1887.06 814.339 1887.06 815.265Z" fill="#CFCECE"/>
<path d="M1898 815.265C1898 816.191 1897.18 816.941 1896.18 816.941C1895.17 816.941 1894.35 816.191 1894.35 815.265C1894.35 814.339 1895.17 813.588 1896.18 813.588C1897.18 813.588 1898 814.339 1898 815.265Z" fill="#CFCECE"/>
<path d="M1788.65 825.324C1788.65 826.249 1787.83 827 1786.82 827C1785.82 827 1785 826.249 1785 825.324C1785 824.398 1785.82 823.647 1786.82 823.647C1787.83 823.647 1788.65 824.398 1788.65 825.324Z" fill="#CFCECE"/>
<path d="M1799.58 825.324C1799.58 826.249 1798.76 827 1797.76 827C1796.75 827 1795.94 826.249 1795.94 825.324C1795.94 824.398 1796.75 823.647 1797.76 823.647C1798.76 823.647 1799.58 824.398 1799.58 825.324Z" fill="#CFCECE"/>
<path d="M1810.52 825.324C1810.52 826.249 1809.7 827 1808.69 827C1807.69 827 1806.87 826.249 1806.87 825.324C1806.87 824.398 1807.69 823.647 1808.69 823.647C1809.7 823.647 1810.52 824.398 1810.52 825.324Z" fill="#CFCECE"/>
<path d="M1821.45 825.324C1821.45 826.249 1820.64 827 1819.63 827C1818.62 827 1817.81 826.249 1817.81 825.324C1817.81 824.398 1818.62 823.647 1819.63 823.647C1820.64 823.647 1821.45 824.398 1821.45 825.324Z" fill="#CFCECE"/>
<path d="M1832.39 825.324C1832.39 826.249 1831.57 827 1830.56 827C1829.56 827 1828.74 826.249 1828.74 825.324C1828.74 824.398 1829.56 823.647 1830.56 823.647C1831.57 823.647 1832.39 824.398 1832.39 825.324Z" fill="#CFCECE"/>
<path d="M1843.32 825.324C1843.32 826.249 1842.51 827 1841.5 827C1840.49 827 1839.68 826.249 1839.68 825.324C1839.68 824.398 1840.49 823.647 1841.5 823.647C1842.51 823.647 1843.32 824.398 1843.32 825.324Z" fill="#CFCECE"/>
<path d="M1854.26 825.324C1854.26 826.249 1853.44 827 1852.44 827C1851.43 827 1850.61 826.249 1850.61 825.324C1850.61 824.398 1851.43 823.647 1852.44 823.647C1853.44 823.647 1854.26 824.398 1854.26 825.324Z" fill="#CFCECE"/>
<path d="M1865.19 825.324C1865.19 826.249 1864.38 827 1863.37 827C1862.36 827 1861.55 826.249 1861.55 825.324C1861.55 824.398 1862.36 823.647 1863.37 823.647C1864.38 823.647 1865.19 824.398 1865.19 825.324Z" fill="#CFCECE"/>
<path d="M1876.13 825.324C1876.13 826.249 1875.31 827 1874.31 827C1873.3 827 1872.48 826.249 1872.48 825.324C1872.48 824.398 1873.3 823.647 1874.31 823.647C1875.31 823.647 1876.13 824.398 1876.13 825.324Z" fill="#CFCECE"/>
<path d="M1887.06 825.324C1887.06 826.249 1886.25 827 1885.24 827C1884.24 827 1883.42 826.249 1883.42 825.324C1883.42 824.398 1884.24 823.647 1885.24 823.647C1886.25 823.647 1887.06 824.398 1887.06 825.324Z" fill="#CFCECE"/>
<path d="M1898 825.324C1898 826.249 1897.18 827 1896.18 827C1895.17 827 1894.35 826.249 1894.35 825.324C1894.35 824.398 1895.17 823.647 1896.18 823.647C1897.18 823.647 1898 824.398 1898 825.324Z" fill="#CFCECE"/>
<path d="M392 152.4L401.6 162L392 171.6L382.4 162L392 152.4Z" fill="#CFCECE" fill-opacity="0.5"/>
<path fill-rule="evenodd" clip-rule="evenodd" d="M408 162L392 146L376 162L392 178L408 162ZM392 150.571L403.429 162L392 173.429L380.571 162L392 150.571Z" fill="#CFCECE" fill-opacity="0.5"/>
<path d="M398.772 162L392 168.772L385.228 162L392 155.228L398.772 162Z" stroke="#F2F0FF" stroke-opacity="0.5" stroke-width="4"/>
<path d="M1753 40.4L1762.6 50L1753 59.6L1743.4 50L1753 40.4Z" fill="#CFCECE" fill-opacity="0.5"/>
<path fill-rule="evenodd" clip-rule="evenodd" d="M1769 50L1753 34L1737 50L1753 66L1769 50ZM1753 38.5714L1764.43 50L1753 61.4286L1741.57 50L1753 38.5714Z" fill="#CFCECE" fill-opacity="0.5"/>
<path d="M1759.77 50L1753 56.7716L1746.23 50L1753 43.2284L1759.77 50Z" stroke="#F2F0FF" stroke-opacity="0.5" stroke-width="4"/>
<path d="M58 340.4L67.6 350L58 359.6L48.4 350L58 340.4Z" fill="#CFCECE" fill-opacity="0.5"/>
<path fill-rule="evenodd" clip-rule="evenodd" d="M74 350L58 334L42 350L58 366L74 350ZM58 338.571L69.4286 350L58 361.429L46.5714 350L58 338.571Z" fill="#CFCECE" fill-opacity="0.5"/>
<path d="M64.7716 350L58 356.772L51.2284 350L58 343.228L64.7716 350Z" stroke="#F2F0FF" stroke-opacity="0.5" stroke-width="4"/>
<path d="M270 703.4L279.6 713L270 722.6L260.4 713L270 703.4Z" fill="#CFCECE" fill-opacity="0.5"/>
<path fill-rule="evenodd" clip-rule="evenodd" d="M286 713L270 697L254 713L270 729L286 713ZM270 701.571L281.429 713L270 724.429L258.571 713L270 701.571Z" fill="#CFCECE" fill-opacity="0.5"/>
<path d="M276.772 713L270 719.772L263.228 713L270 706.228L276.772 713Z" stroke="#F2F0FF" stroke-opacity="0.5" stroke-width="4"/>
<path d="M1485 256.4L1494.6 266L1485 275.6L1475.4 266L1485 256.4Z" fill="#EAEAEA" fill-opacity="0.5"/>
<path fill-rule="evenodd" clip-rule="evenodd" d="M1501 266L1485 250L1469 266L1485 282L1501 266ZM1485 254.571L1496.43 266L1485 277.429L1473.57 266L1485 254.571Z" fill="#EAEAEA" fill-opacity="0.5"/>
<path d="M1491.77 266L1485 272.772L1478.23 266L1485 259.228L1491.77 266Z" stroke="#F2F0FF" stroke-opacity="0.5" stroke-width="4"/>
<rect x="536" y="79" width="14" height="14" stroke="#EAEAEA" stroke-opacity="0.5" stroke-width="6"/>
<rect x="440" y="833" width="14" height="14" stroke="#EAEAEA" stroke-opacity="0.5" stroke-width="6"/>
<rect x="39" y="455" width="14" height="14" stroke="#EAEAEA" stroke-opacity="0.5" stroke-width="6"/>
<rect x="1559" y="499" width="14" height="14" stroke="#EAEAEA" stroke-opacity="0.5" stroke-width="6"/>
</g>
<defs>
<clipPath id="clip0_1407_32">
<rect width="1920" height="935" fill="white"/>
</clipPath>
</defs>
</svg>
