<svg xmlns="http://www.w3.org/2000/svg"><circle r="4" fill="#cfcfcf"/><circle cx="28.35" r="4" fill="#cfcfcf"/><circle cx="56.7" r="4" fill="#cfcfcf"/><circle cx="85.05" r="4" fill="#cfcfcf"/><circle cx="113.4" r="4" fill="#cfcfcf"/><circle cx="141.75" r="4" fill="#cfcfcf"/><circle cx="170.1" r="4" fill="#cfcfcf"/><circle cx="198.45" r="4" fill="#cfcfcf"/><circle cx="226.8" r="4" fill="#cfcfcf"/><circle cx="255.15" r="4" fill="#cfcfcf"/><circle cx="283.5" r="4" fill="#cfcfcf"/><circle cx="311.85" r="4" fill="#cfcfcf"/><circle cx="340.2" r="4" fill="#cfcfcf"/><circle cx="368.55" r="4" fill="#cfcfcf"/><circle cx="396.9" r="4" fill="#cfcfcf"/><circle cx="425.25" r="4" fill="#cfcfcf"/><circle cy="28.35" r="4" fill="#cfcfcf"/><circle cx="28.35" cy="28.35" r="4" fill="#cfcfcf"/><circle cx="56.7" cy="28.35" r="4" fill="#cfcfcf"/><circle cx="85.05" cy="28.35" r="4" fill="#cfcfcf"/><circle cx="113.4" cy="28.35" r="4" fill="#cfcfcf"/><circle cx="141.75" cy="28.35" r="4" fill="#cfcfcf"/><circle cx="170.1" cy="28.35" r="4" fill="#cfcfcf"/><circle cx="198.45" cy="28.35" r="4" fill="#cfcfcf"/><circle cx="226.8" cy="28.35" r="4" fill="#cfcfcf"/><circle cx="255.15" cy="28.35" r="4" fill="#cfcfcf"/><circle cx="283.5" cy="28.35" r="4" fill="#cfcfcf"/><circle cx="311.85" cy="28.35" r="4" fill="#cfcfcf"/><circle cx="340.2" cy="28.35" r="4" fill="#cfcfcf"/><circle cx="368.55" cy="28.35" r="4" fill="#cfcfcf"/><circle cx="396.9" cy="28.35" r="4" fill="#cfcfcf"/><circle cx="425.25" cy="28.35" r="4" fill="#cfcfcf"/><circle cy="56.7" r="4" fill="#cfcfcf"/><circle cx="28.35" cy="56.7" r="4" fill="#cfcfcf"/><circle cx="56.7" cy="56.7" r="4" fill="#cfcfcf"/><circle cx="85.05" cy="56.7" r="4" fill="#cfcfcf"/><circle cx="113.4" cy="56.7" r="4" fill="#cfcfcf"/><circle cx="141.75" cy="56.7" r="4" fill="#cfcfcf"/><circle cx="170.1" cy="56.7" r="4" fill="#cfcfcf"/><circle cx="198.45" cy="56.7" r="4" fill="#cfcfcf"/><circle cx="226.8" cy="56.7" r="4" fill="#cfcfcf"/><circle cx="255.15" cy="56.7" r="4" fill="#cfcfcf"/><circle cx="283.5" cy="56.7" r="4" fill="#cfcfcf"/><circle cx="311.85" cy="56.7" r="4" fill="#cfcfcf"/><circle cx="340.2" cy="56.7" r="4" fill="#cfcfcf"/><circle cx="368.55" cy="56.7" r="4" fill="#cfcfcf"/><circle cx="396.9" cy="56.7" r="4" fill="#cfcfcf"/><circle cx="425.25" cy="56.7" r="4" fill="#cfcfcf"/><circle cy="85.05" r="4" fill="#cfcfcf"/><circle cx="28.35" cy="85.05" r="4" fill="#cfcfcf"/><circle cx="56.7" cy="85.05" r="4" fill="#cfcfcf"/><circle cx="85.05" cy="85.05" r="4" fill="#cfcfcf"/><circle cx="113.4" cy="85.05" r="4" fill="#cfcfcf"/><circle cx="141.75" cy="85.05" r="4" fill="#cfcfcf"/><circle cx="170.1" cy="85.05" r="4" fill="#cfcfcf"/><circle cx="198.45" cy="85.05" r="4" fill="#cfcfcf"/><circle cx="226.8" cy="85.05" r="4" fill="#cfcfcf"/><circle cx="255.15" cy="85.05" r="4" fill="#cfcfcf"/><circle cx="283.5" cy="85.05" r="4" fill="#cfcfcf"/><circle cx="311.85" cy="85.05" r="4" fill="#cfcfcf"/><circle cx="340.2" cy="85.05" r="4" fill="#cfcfcf"/><circle cx="368.55" cy="85.05" r="4" fill="#cfcfcf"/><circle cx="396.9" cy="85.05" r="4" fill="#cfcfcf"/><circle cx="425.25" cy="85.05" r="4" fill="#cfcfcf"/><circle cy="113.4" r="4" fill="#cfcfcf"/><circle cx="28.35" cy="113.4" r="4" fill="#cfcfcf"/><circle cx="56.7" cy="113.4" r="4" fill="#cfcfcf"/><circle cx="85.05" cy="113.4" r="4" fill="#cfcfcf"/><circle cx="113.4" cy="113.4" r="4" fill="#cfcfcf"/><circle cx="141.75" cy="113.4" r="4" fill="#cfcfcf"/><circle cx="170.1" cy="113.4" r="4" fill="#cfcfcf"/><circle cx="198.45" cy="113.4" r="4" fill="#cfcfcf"/><circle cx="226.8" cy="113.4" r="4" fill="#cfcfcf"/><circle cx="255.15" cy="113.4" r="4" fill="#cfcfcf"/><circle cx="283.5" cy="113.4" r="4" fill="#cfcfcf"/><circle cx="311.85" cy="113.4" r="4" fill="#cfcfcf"/><circle cx="340.2" cy="113.4" r="4" fill="#cfcfcf"/><circle cx="368.55" cy="113.4" r="4" fill="#cfcfcf"/><circle cx="396.9" cy="113.4" r="4" fill="#cfcfcf"/><circle cx="425.25" cy="113.4" r="4" fill="#cfcfcf"/><circle cy="141.75" r="4" fill="#cfcfcf"/><circle cx="28.35" cy="141.75" r="4" fill="#cfcfcf"/><circle cx="56.7" cy="141.75" r="4" fill="#cfcfcf"/><circle cx="85.05" cy="141.75" r="4" fill="#cfcfcf"/><circle cx="113.4" cy="141.75" r="4" fill="#cfcfcf"/><circle cx="141.75" cy="141.75" r="4" fill="#cfcfcf"/><circle cx="170.1" cy="141.75" r="4" fill="#cfcfcf"/><circle cx="198.45" cy="141.75" r="4" fill="#cfcfcf"/><circle cx="226.8" cy="141.75" r="4" fill="#cfcfcf"/><circle cx="255.15" cy="141.75" r="4" fill="#cfcfcf"/><circle cx="283.5" cy="141.75" r="4" fill="#cfcfcf"/><circle cx="311.85" cy="141.75" r="4" fill="#cfcfcf"/><circle cx="340.2" cy="141.75" r="4" fill="#cfcfcf"/><circle cx="368.55" cy="141.75" r="4" fill="#cfcfcf"/><circle cx="396.9" cy="141.75" r="4" fill="#cfcfcf"/><circle cx="425.25" cy="141.75" r="4" fill="#cfcfcf"/><circle cy="170.1" r="4" fill="#cfcfcf"/><circle cx="28.35" cy="170.1" r="4" fill="#cfcfcf"/><circle cx="56.7" cy="170.1" r="4" fill="#cfcfcf"/><circle cx="85.05" cy="170.1" r="4" fill="#cfcfcf"/><circle cx="113.4" cy="170.1" r="4" fill="#cfcfcf"/><circle cx="141.75" cy="170.1" r="4" fill="#cfcfcf"/><circle cx="170.1" cy="170.1" r="4" fill="#cfcfcf"/><circle cx="198.45" cy="170.1" r="4" fill="#cfcfcf"/><circle cx="226.8" cy="170.1" r="4" fill="#cfcfcf"/><circle cx="255.15" cy="170.1" r="4" fill="#cfcfcf"/><circle cx="283.5" cy="170.1" r="4" fill="#cfcfcf"/><circle cx="311.85" cy="170.1" r="4" fill="#cfcfcf"/><circle cx="340.2" cy="170.1" r="4" fill="#cfcfcf"/><circle cx="368.55" cy="170.1" r="4" fill="#cfcfcf"/><circle cx="396.9" cy="170.1" r="4" fill="#cfcfcf"/><circle cx="425.25" cy="170.1" r="4" fill="#cfcfcf"/><circle cy="198.45" r="4" fill="#cfcfcf"/><circle cx="28.35" cy="198.45" r="4" fill="#cfcfcf"/><circle cx="56.7" cy="198.45" r="4" fill="#cfcfcf"/><circle cx="85.05" cy="198.45" r="4" fill="#cfcfcf"/><circle cx="113.4" cy="198.45" r="4" fill="#cfcfcf"/><circle cx="141.75" cy="198.45" r="4" fill="#cfcfcf"/><circle cx="170.1" cy="198.45" r="4" fill="#cfcfcf"/><circle cx="198.45" cy="198.45" r="4" fill="#cfcfcf"/><circle cx="226.8" cy="198.45" r="4" fill="#cfcfcf"/><circle cx="255.15" cy="198.45" r="4" fill="#cfcfcf"/><circle cx="283.5" cy="198.45" r="4" fill="#cfcfcf"/><circle cx="311.85" cy="198.45" r="4" fill="#cfcfcf"/><circle cx="340.2" cy="198.45" r="4" fill="#cfcfcf"/><circle cx="368.55" cy="198.45" r="4" fill="#cfcfcf"/><circle cx="396.9" cy="198.45" r="4" fill="#cfcfcf"/><circle cx="425.25" cy="198.45" r="4" fill="#cfcfcf"/><circle cy="226.8" r="4" fill="#cfcfcf"/><circle cx="28.35" cy="226.8" r="4" fill="#cfcfcf"/><circle cx="56.7" cy="226.8" r="4" fill="#cfcfcf"/><circle cx="85.05" cy="226.8" r="4" fill="#cfcfcf"/><circle cx="113.4" cy="226.8" r="4" fill="#cfcfcf"/><circle cx="141.75" cy="226.8" r="4" fill="#cfcfcf"/><circle cx="170.1" cy="226.8" r="4" fill="#cfcfcf"/><circle cx="198.45" cy="226.8" r="4" fill="#cfcfcf"/><circle cx="226.8" cy="226.8" r="4" fill="#cfcfcf"/><circle cx="255.15" cy="226.8" r="4" fill="#cfcfcf"/><circle cx="283.5" cy="226.8" r="4" fill="#cfcfcf"/><circle cx="311.85" cy="226.8" r="4" fill="#cfcfcf"/><circle cx="340.2" cy="226.8" r="4" fill="#cfcfcf"/><circle cx="368.55" cy="226.8" r="4" fill="#cfcfcf"/><circle cx="396.9" cy="226.8" r="4" fill="#cfcfcf"/><circle cx="425.25" cy="226.8" r="4" fill="#cfcfcf"/><circle cy="255.15" r="4" fill="#cfcfcf"/><circle cx="28.35" cy="255.15" r="4" fill="#cfcfcf"/><circle cx="56.7" cy="255.15" r="4" fill="#cfcfcf"/><circle cx="85.05" cy="255.15" r="4" fill="#cfcfcf"/><circle cx="113.4" cy="255.15" r="4" fill="#cfcfcf"/><circle cx="141.75" cy="255.15" r="4" fill="#cfcfcf"/><circle cx="170.1" cy="255.15" r="4" fill="#cfcfcf"/><circle cx="198.45" cy="255.15" r="4" fill="#cfcfcf"/><circle cx="226.8" cy="255.15" r="4" fill="#cfcfcf"/><circle cx="255.15" cy="255.15" r="4" fill="#cfcfcf"/><circle cx="283.5" cy="255.15" r="4" fill="#cfcfcf"/><circle cx="311.85" cy="255.15" r="4" fill="#cfcfcf"/><circle cx="340.2" cy="255.15" r="4" fill="#cfcfcf"/><circle cx="368.55" cy="255.15" r="4" fill="#cfcfcf"/><circle cx="396.9" cy="255.15" r="4" fill="#cfcfcf"/><circle cx="425.25" cy="255.15" r="4" fill="#cfcfcf"/><circle cy="283.5" r="4" fill="#cfcfcf"/><circle cx="28.35" cy="283.5" r="4" fill="#cfcfcf"/><circle cx="56.7" cy="283.5" r="4" fill="#cfcfcf"/><circle cx="85.05" cy="283.5" r="4" fill="#cfcfcf"/><circle cx="113.4" cy="283.5" r="4" fill="#cfcfcf"/><circle cx="141.75" cy="283.5" r="4" fill="#cfcfcf"/><circle cx="170.1" cy="283.5" r="4" fill="#cfcfcf"/><circle cx="198.45" cy="283.5" r="4" fill="#cfcfcf"/><circle cx="226.8" cy="283.5" r="4" fill="#cfcfcf"/><circle cx="255.15" cy="283.5" r="4" fill="#cfcfcf"/><circle cx="283.5" cy="283.5" r="4" fill="#cfcfcf"/><circle cx="311.85" cy="283.5" r="4" fill="#cfcfcf"/><circle cx="340.2" cy="283.5" r="4" fill="#cfcfcf"/><circle cx="368.55" cy="283.5" r="4" fill="#cfcfcf"/><circle cx="396.9" cy="283.5" r="4" fill="#cfcfcf"/><circle cx="425.25" cy="283.5" r="4" fill="#cfcfcf"/><circle cy="311.85" r="4" fill="#cfcfcf"/><circle cx="28.35" cy="311.85" r="4" fill="#cfcfcf"/><circle cx="56.7" cy="311.85" r="4" fill="#cfcfcf"/><circle cx="85.05" cy="311.85" r="4" fill="#cfcfcf"/><circle cx="113.4" cy="311.85" r="4" fill="#cfcfcf"/><circle cx="141.75" cy="311.85" r="4" fill="#cfcfcf"/><circle cx="170.1" cy="311.85" r="4" fill="#cfcfcf"/><circle cx="198.45" cy="311.85" r="4" fill="#cfcfcf"/><circle cx="226.8" cy="311.85" r="4" fill="#cfcfcf"/><circle cx="255.15" cy="311.85" r="4" fill="#cfcfcf"/><circle cx="283.5" cy="311.85" r="4" fill="#cfcfcf"/><circle cx="311.85" cy="311.85" r="4" fill="#cfcfcf"/><circle cx="340.2" cy="311.85" r="4" fill="#cfcfcf"/><circle cx="368.55" cy="311.85" r="4" fill="#cfcfcf"/><circle cx="396.9" cy="311.85" r="4" fill="#cfcfcf"/><circle cx="425.25" cy="311.85" r="4" fill="#cfcfcf"/><circle cy="340.2" r="4" fill="#cfcfcf"/><circle cx="28.35" cy="340.2" r="4" fill="#cfcfcf"/><circle cx="56.7" cy="340.2" r="4" fill="#cfcfcf"/><circle cx="85.05" cy="340.2" r="4" fill="#cfcfcf"/><circle cx="113.4" cy="340.2" r="4" fill="#cfcfcf"/><circle cx="141.75" cy="340.2" r="4" fill="#cfcfcf"/><circle cx="170.1" cy="340.2" r="4" fill="#cfcfcf"/><circle cx="198.45" cy="340.2" r="4" fill="#cfcfcf"/><circle cx="226.8" cy="340.2" r="4" fill="#cfcfcf"/><circle cx="255.15" cy="340.2" r="4" fill="#cfcfcf"/><circle cx="283.5" cy="340.2" r="4" fill="#cfcfcf"/><circle cx="311.85" cy="340.2" r="4" fill="#cfcfcf"/><circle cx="340.2" cy="340.2" r="4" fill="#cfcfcf"/><circle cx="368.55" cy="340.2" r="4" fill="#cfcfcf"/><circle cx="396.9" cy="340.2" r="4" fill="#cfcfcf"/><circle cx="425.25" cy="340.2" r="4" fill="#cfcfcf"/><circle cy="368.55" r="4" fill="#cfcfcf"/><circle cx="28.35" cy="368.55" r="4" fill="#cfcfcf"/><circle cx="56.7" cy="368.55" r="4" fill="#cfcfcf"/><circle cx="85.05" cy="368.55" r="4" fill="#cfcfcf"/><circle cx="113.4" cy="368.55" r="4" fill="#cfcfcf"/><circle cx="141.75" cy="368.55" r="4" fill="#cfcfcf"/><circle cx="170.1" cy="368.55" r="4" fill="#cfcfcf"/><circle cx="198.45" cy="368.55" r="4" fill="#cfcfcf"/><circle cx="226.8" cy="368.55" r="4" fill="#cfcfcf"/><circle cx="255.15" cy="368.55" r="4" fill="#cfcfcf"/><circle cx="283.5" cy="368.55" r="4" fill="#cfcfcf"/><circle cx="311.85" cy="368.55" r="4" fill="#cfcfcf"/><circle cx="340.2" cy="368.55" r="4" fill="#cfcfcf"/><circle cx="368.55" cy="368.55" r="4" fill="#cfcfcf"/><circle cx="396.9" cy="368.55" r="4" fill="#cfcfcf"/><circle cx="425.25" cy="368.55" r="4" fill="#cfcfcf"/><circle cy="396.9" r="4" fill="#cfcfcf"/><circle cx="28.35" cy="396.9" r="4" fill="#cfcfcf"/><circle cx="56.7" cy="396.9" r="4" fill="#cfcfcf"/><circle cx="85.05" cy="396.9" r="4" fill="#cfcfcf"/><circle cx="113.4" cy="396.9" r="4" fill="#cfcfcf"/><circle cx="141.75" cy="396.9" r="4" fill="#cfcfcf"/><circle cx="170.1" cy="396.9" r="4" fill="#cfcfcf"/><circle cx="198.45" cy="396.9" r="4" fill="#cfcfcf"/><circle cx="226.8" cy="396.9" r="4" fill="#cfcfcf"/><circle cx="255.15" cy="396.9" r="4" fill="#cfcfcf"/><circle cx="283.5" cy="396.9" r="4" fill="#cfcfcf"/><circle cx="311.85" cy="396.9" r="4" fill="#cfcfcf"/><circle cx="340.2" cy="396.9" r="4" fill="#cfcfcf"/><circle cx="368.55" cy="396.9" r="4" fill="#cfcfcf"/><circle cx="396.9" cy="396.9" r="4" fill="#cfcfcf"/><circle cx="425.25" cy="396.9" r="4" fill="#cfcfcf"/><circle cy="425.25" r="4" fill="#cfcfcf"/><circle cx="28.35" cy="425.25" r="4" fill="#cfcfcf"/><circle cx="56.7" cy="425.25" r="4" fill="#cfcfcf"/><circle cx="85.05" cy="425.25" r="4" fill="#cfcfcf"/><circle cx="113.4" cy="425.25" r="4" fill="#cfcfcf"/><circle cx="141.75" cy="425.25" r="4" fill="#cfcfcf"/><circle cx="170.1" cy="425.25" r="4" fill="#cfcfcf"/><circle cx="198.45" cy="425.25" r="4" fill="#cfcfcf"/><circle cx="226.8" cy="425.25" r="4" fill="#cfcfcf"/><circle cx="255.15" cy="425.25" r="4" fill="#cfcfcf"/><circle cx="283.5" cy="425.25" r="4" fill="#cfcfcf"/><circle cx="311.85" cy="425.25" r="4" fill="#cfcfcf"/><circle cx="340.2" cy="425.25" r="4" fill="#cfcfcf"/><circle cx="368.55" cy="425.25" r="4" fill="#cfcfcf"/><circle cx="396.9" cy="425.25" r="4" fill="#cfcfcf"/><circle cx="425.25" cy="425.25" r="4" fill="#cfcfcf"/></svg>