<svg width="130" height="109" viewBox="0 0 130 109" fill="none" xmlns="http://www.w3.org/2000/svg">
<path fill-rule="evenodd" clip-rule="evenodd" d="M10.8315 106.563C14.2446 91.9362 19.1744 85.4812 25.1474 83.2932C31.1204 81.1004 37.8519 83.1771 44.5834 85.2585C49.2291 86.7227 53.9696 88.2165 58.3308 88.4854C62.8817 88.7685 67.1483 87.7261 70.8459 84.0549C71.6992 83.1735 72.4579 81.7437 72.9319 79.8376C73.6904 77.2516 74.1644 73.7321 74.354 69.6024C75.3021 53.9369 73.4063 29.2801 75.6818 14.2637C76.1558 10.8117 76.9137 7.8845 77.9566 5.73084C78.9047 3.85676 80.0423 2.59039 81.5592 2.26817C82.7918 2.00518 84.2141 2.37358 86.0155 3.37341C89.0494 5.08046 92.652 8.56208 97.2028 14.2092C101.185 19.1527 104.504 24.7216 108.391 29.7788C114.459 37.6957 120.811 45.7191 127.922 52.0711C128.396 52.4727 129.059 52.4324 129.438 51.9823C129.912 51.5309 129.818 50.8391 129.344 50.4375C122.328 44.1756 116.071 36.2563 110.098 28.4508C106.305 23.3806 102.892 17.7974 98.9102 12.841C94.1697 6.89768 90.2825 3.26918 87.0589 1.4721C84.7835 0.137027 82.7918 -0.225489 81.0852 0.126346C79.3786 0.488842 77.862 1.61306 76.7243 3.41607C75.2073 5.80191 74.1641 9.45531 73.5004 13.9403C71.225 29.01 73.1217 53.7557 72.1736 69.4769C71.984 73.417 71.5096 76.7777 70.8459 79.2453C70.4667 80.7083 69.9924 81.8361 69.234 82.5125C66.1052 85.685 62.4082 86.545 58.4262 86.301C54.2546 86.0415 49.7037 84.5785 45.1528 83.1688C38.0421 80.9381 30.7413 78.8899 24.3891 81.239C18.0368 83.5917 12.3482 90.3429 8.74546 106.068C8.55584 106.656 8.9349 107.245 9.50376 107.381C10.0726 107.518 10.7367 107.152 10.8315 106.563Z" fill="black" fill-opacity="0.5"/>
<path fill-rule="evenodd" clip-rule="evenodd" d="M7.68015 105.711C7.58534 105.558 7.39535 105.142 7.30054 104.799C6.73168 103.128 6.16338 100.536 5.97376 99.7757C3.88794 93.0482 2.18137 85.5176 2.18137 78.3115C2.18137 77.7073 1.70676 77.2181 1.1379 77.2192C0.474234 77.2204 0 77.7108 0 78.315C0 85.7296 1.80139 93.4794 3.79239 100.402C4.07682 101.174 4.64568 103.805 5.21454 105.501C5.40416 106.111 5.59434 106.616 5.78395 106.933C5.97357 107.194 6.16282 107.373 6.35244 107.485C6.73168 107.777 7.3011 107.919 7.86996 107.9C8.53362 107.879 9.29192 107.659 10.0504 107.287C11.6622 106.56 13.5582 105.23 15.0751 104.178C15.9284 103.574 16.6871 103.058 17.1611 102.901C21.238 101.549 25.6936 102.99 29.1068 107.667C29.486 108.152 30.1503 108.258 30.6243 107.9C31.0984 107.542 31.193 106.856 30.9086 106.369C26.7369 100.76 21.4274 99.2 16.4973 100.823C15.2648 101.214 12.6104 103.372 10.2402 104.751C9.48172 105.146 8.8175 105.47 8.24864 105.629C8.05902 105.675 7.96421 105.707 7.77459 105.712C7.77459 105.714 7.68015 105.718 7.68015 105.711Z" fill="black" fill-opacity="0.5"/>
</svg>
