<svg xmlns="http://www.w3.org/2000/svg"><circle r="4" fill="#d4d4d4"/><circle cx="25.2" r="4" fill="#d4d4d4"/><circle cx="50.4" r="4" fill="#d4d4d4"/><circle cx="75.6" r="4" fill="#d4d4d4"/><circle cx="100.8" r="4" fill="#d4d4d4"/><circle cx="126" r="4" fill="#d4d4d4"/><circle cx="151.2" r="4" fill="#d4d4d4"/><circle cx="176.4" r="4" fill="#d4d4d4"/><circle cx="201.6" r="4" fill="#d4d4d4"/><circle cx="226.8" r="4" fill="#d4d4d4"/><circle cx="252" r="4" fill="#d4d4d4"/><circle cx="277.2" r="4" fill="#d4d4d4"/><circle cx="302.4" r="4" fill="#d4d4d4"/><circle cx="327.6" r="4" fill="#d4d4d4"/><circle cx="352.8" r="4" fill="#d4d4d4"/><circle cx="378" r="4" fill="#d4d4d4"/><circle cx="403.2" r="4" fill="#d4d4d4"/><circle cx="428.4" r="4" fill="#d4d4d4"/><circle cx="453.6" r="4" fill="#d4d4d4"/><circle cx="478.8" r="4" fill="#d4d4d4"/><circle cx="504" r="4" fill="#d4d4d4"/><circle cx="529.2" r="4" fill="#d4d4d4"/><circle cx="554.4" r="4" fill="#d4d4d4"/><circle cx="579.6" r="4" fill="#d4d4d4"/><circle cy="25.2" r="4" fill="#d4d4d4"/><circle cx="25.2" cy="25.2" r="4" fill="#d4d4d4"/><circle cx="50.4" cy="25.2" r="4" fill="#d4d4d4"/><circle cx="75.6" cy="25.2" r="4" fill="#d4d4d4"/><circle cx="100.8" cy="25.2" r="4" fill="#d4d4d4"/><circle cx="126" cy="25.2" r="4" fill="#d4d4d4"/><circle cx="151.2" cy="25.2" r="4" fill="#d4d4d4"/><circle cx="176.4" cy="25.2" r="4" fill="#d4d4d4"/><circle cx="201.6" cy="25.2" r="4" fill="#d4d4d4"/><circle cx="226.8" cy="25.2" r="4" fill="#d4d4d4"/><circle cx="252" cy="25.2" r="4" fill="#d4d4d4"/><circle cx="277.2" cy="25.2" r="4" fill="#d4d4d4"/><circle cx="302.4" cy="25.2" r="4" fill="#d4d4d4"/><circle cx="327.6" cy="25.2" r="4" fill="#d4d4d4"/><circle cx="352.8" cy="25.2" r="4" fill="#d4d4d4"/><circle cx="378" cy="25.2" r="4" fill="#d4d4d4"/><circle cx="403.2" cy="25.2" r="4" fill="#d4d4d4"/><circle cx="428.4" cy="25.2" r="4" fill="#d4d4d4"/><circle cx="453.6" cy="25.2" r="4" fill="#d4d4d4"/><circle cx="478.8" cy="25.2" r="4" fill="#d4d4d4"/><circle cx="504" cy="25.2" r="4" fill="#d4d4d4"/><circle cx="529.2" cy="25.2" r="4" fill="#d4d4d4"/><circle cx="554.4" cy="25.2" r="4" fill="#d4d4d4"/><circle cx="579.6" cy="25.2" r="4" fill="#d4d4d4"/><circle cy="50.4" r="4" fill="#d4d4d4"/><circle cx="25.2" cy="50.4" r="4" fill="#d4d4d4"/><circle cx="50.4" cy="50.4" r="4" fill="#d4d4d4"/><circle cx="75.6" cy="50.4" r="4" fill="#d4d4d4"/><circle cx="100.8" cy="50.4" r="4" fill="#d4d4d4"/><circle cx="126" cy="50.4" r="4" fill="#d4d4d4"/><circle cx="151.2" cy="50.4" r="4" fill="#d4d4d4"/><circle cx="176.4" cy="50.4" r="4" fill="#d4d4d4"/><circle cx="201.6" cy="50.4" r="4" fill="#d4d4d4"/><circle cx="226.8" cy="50.4" r="4" fill="#d4d4d4"/><circle cx="252" cy="50.4" r="4" fill="#d4d4d4"/><circle cx="277.2" cy="50.4" r="4" fill="#d4d4d4"/><circle cx="302.4" cy="50.4" r="4" fill="#d4d4d4"/><circle cx="327.6" cy="50.4" r="4" fill="#d4d4d4"/><circle cx="352.8" cy="50.4" r="4" fill="#d4d4d4"/><circle cx="378" cy="50.4" r="4" fill="#d4d4d4"/><circle cx="403.2" cy="50.4" r="4" fill="#d4d4d4"/><circle cx="428.4" cy="50.4" r="4" fill="#d4d4d4"/><circle cx="453.6" cy="50.4" r="4" fill="#d4d4d4"/><circle cx="478.8" cy="50.4" r="4" fill="#d4d4d4"/><circle cx="504" cy="50.4" r="4" fill="#d4d4d4"/><circle cx="529.2" cy="50.4" r="4" fill="#d4d4d4"/><circle cx="554.4" cy="50.4" r="4" fill="#d4d4d4"/><circle cx="579.6" cy="50.4" r="4" fill="#d4d4d4"/><circle cy="75.6" r="4" fill="#d4d4d4"/><circle cx="25.2" cy="75.6" r="4" fill="#d4d4d4"/><circle cx="50.4" cy="75.6" r="4" fill="#d4d4d4"/><circle cx="75.6" cy="75.6" r="4" fill="#d4d4d4"/><circle cx="100.8" cy="75.6" r="4" fill="#d4d4d4"/><circle cx="126" cy="75.6" r="4" fill="#d4d4d4"/><circle cx="151.2" cy="75.6" r="4" fill="#d4d4d4"/><circle cx="176.4" cy="75.6" r="4" fill="#d4d4d4"/><circle cx="201.6" cy="75.6" r="4" fill="#d4d4d4"/><circle cx="226.8" cy="75.6" r="4" fill="#d4d4d4"/><circle cx="252" cy="75.6" r="4" fill="#d4d4d4"/><circle cx="277.2" cy="75.6" r="4" fill="#d4d4d4"/><circle cx="302.4" cy="75.6" r="4" fill="#d4d4d4"/><circle cx="327.6" cy="75.6" r="4" fill="#d4d4d4"/><circle cx="352.8" cy="75.6" r="4" fill="#d4d4d4"/><circle cx="378" cy="75.6" r="4" fill="#d4d4d4"/><circle cx="403.2" cy="75.6" r="4" fill="#d4d4d4"/><circle cx="428.4" cy="75.6" r="4" fill="#d4d4d4"/><circle cx="453.6" cy="75.6" r="4" fill="#d4d4d4"/><circle cx="478.8" cy="75.6" r="4" fill="#d4d4d4"/><circle cx="504" cy="75.6" r="4" fill="#d4d4d4"/><circle cx="529.2" cy="75.6" r="4" fill="#d4d4d4"/><circle cx="554.4" cy="75.6" r="4" fill="#d4d4d4"/><circle cx="579.6" cy="75.6" r="4" fill="#d4d4d4"/><circle cy="100.8" r="4" fill="#d4d4d4"/><circle cx="25.2" cy="100.8" r="4" fill="#d4d4d4"/><circle cx="50.4" cy="100.8" r="4" fill="#d4d4d4"/><circle cx="75.6" cy="100.8" r="4" fill="#d4d4d4"/><circle cx="100.8" cy="100.8" r="4" fill="#d4d4d4"/><circle cx="126" cy="100.8" r="4" fill="#d4d4d4"/><circle cx="151.2" cy="100.8" r="4" fill="#d4d4d4"/><circle cx="176.4" cy="100.8" r="4" fill="#d4d4d4"/><circle cx="201.6" cy="100.8" r="4" fill="#d4d4d4"/><circle cx="226.8" cy="100.8" r="4" fill="#d4d4d4"/><circle cx="252" cy="100.8" r="4" fill="#d4d4d4"/><circle cx="277.2" cy="100.8" r="4" fill="#d4d4d4"/><circle cx="302.4" cy="100.8" r="4" fill="#d4d4d4"/><circle cx="327.6" cy="100.8" r="4" fill="#d4d4d4"/><circle cx="352.8" cy="100.8" r="4" fill="#d4d4d4"/><circle cx="378" cy="100.8" r="4" fill="#d4d4d4"/><circle cx="403.2" cy="100.8" r="4" fill="#d4d4d4"/><circle cx="428.4" cy="100.8" r="4" fill="#d4d4d4"/><circle cx="453.6" cy="100.8" r="4" fill="#d4d4d4"/><circle cx="478.8" cy="100.8" r="4" fill="#d4d4d4"/><circle cx="504" cy="100.8" r="4" fill="#d4d4d4"/><circle cx="529.2" cy="100.8" r="4" fill="#d4d4d4"/><circle cx="554.4" cy="100.8" r="4" fill="#d4d4d4"/><circle cx="579.6" cy="100.8" r="4" fill="#d4d4d4"/><circle cy="126" r="4" fill="#d4d4d4"/><circle cx="25.2" cy="126" r="4" fill="#d4d4d4"/><circle cx="50.4" cy="126" r="4" fill="#d4d4d4"/><circle cx="75.6" cy="126" r="4" fill="#d4d4d4"/><circle cx="100.8" cy="126" r="4" fill="#d4d4d4"/><circle cx="126" cy="126" r="4" fill="#d4d4d4"/><circle cx="151.2" cy="126" r="4" fill="#d4d4d4"/><circle cx="176.4" cy="126" r="4" fill="#d4d4d4"/><circle cx="201.6" cy="126" r="4" fill="#d4d4d4"/><circle cx="226.8" cy="126" r="4" fill="#d4d4d4"/><circle cx="252" cy="126" r="4" fill="#d4d4d4"/><circle cx="277.2" cy="126" r="4" fill="#d4d4d4"/><circle cx="302.4" cy="126" r="4" fill="#d4d4d4"/><circle cx="327.6" cy="126" r="4" fill="#d4d4d4"/><circle cx="352.8" cy="126" r="4" fill="#d4d4d4"/><circle cx="378" cy="126" r="4" fill="#d4d4d4"/><circle cx="403.2" cy="126" r="4" fill="#d4d4d4"/><circle cx="428.4" cy="126" r="4" fill="#d4d4d4"/><circle cx="453.6" cy="126" r="4" fill="#d4d4d4"/><circle cx="478.8" cy="126" r="4" fill="#d4d4d4"/><circle cx="504" cy="126" r="4" fill="#d4d4d4"/><circle cx="529.2" cy="126" r="4" fill="#d4d4d4"/><circle cx="554.4" cy="126" r="4" fill="#d4d4d4"/><circle cx="579.6" cy="126" r="4" fill="#d4d4d4"/><circle cy="151.2" r="4" fill="#d4d4d4"/><circle cx="25.2" cy="151.2" r="4" fill="#d4d4d4"/><circle cx="50.4" cy="151.2" r="4" fill="#d4d4d4"/><circle cx="75.6" cy="151.2" r="4" fill="#d4d4d4"/><circle cx="100.8" cy="151.2" r="4" fill="#d4d4d4"/><circle cx="126" cy="151.2" r="4" fill="#d4d4d4"/><circle cx="151.2" cy="151.2" r="4" fill="#d4d4d4"/><circle cx="176.4" cy="151.2" r="4" fill="#d4d4d4"/><circle cx="201.6" cy="151.2" r="4" fill="#d4d4d4"/><circle cx="226.8" cy="151.2" r="4" fill="#d4d4d4"/><circle cx="252" cy="151.2" r="4" fill="#d4d4d4"/><circle cx="277.2" cy="151.2" r="4" fill="#d4d4d4"/><circle cx="302.4" cy="151.2" r="4" fill="#d4d4d4"/><circle cx="327.6" cy="151.2" r="4" fill="#d4d4d4"/><circle cx="352.8" cy="151.2" r="4" fill="#d4d4d4"/><circle cx="378" cy="151.2" r="4" fill="#d4d4d4"/><circle cx="403.2" cy="151.2" r="4" fill="#d4d4d4"/><circle cx="428.4" cy="151.2" r="4" fill="#d4d4d4"/><circle cx="453.6" cy="151.2" r="4" fill="#d4d4d4"/><circle cx="478.8" cy="151.2" r="4" fill="#d4d4d4"/><circle cx="504" cy="151.2" r="4" fill="#d4d4d4"/><circle cx="529.2" cy="151.2" r="4" fill="#d4d4d4"/><circle cx="554.4" cy="151.2" r="4" fill="#d4d4d4"/><circle cx="579.6" cy="151.2" r="4" fill="#d4d4d4"/><circle cy="176.4" r="4" fill="#d4d4d4"/><circle cx="25.2" cy="176.4" r="4" fill="#d4d4d4"/><circle cx="50.4" cy="176.4" r="4" fill="#d4d4d4"/><circle cx="75.6" cy="176.4" r="4" fill="#d4d4d4"/><circle cx="100.8" cy="176.4" r="4" fill="#d4d4d4"/><circle cx="126" cy="176.4" r="4" fill="#d4d4d4"/><circle cx="151.2" cy="176.4" r="4" fill="#d4d4d4"/><circle cx="176.4" cy="176.4" r="4" fill="#d4d4d4"/><circle cx="201.6" cy="176.4" r="4" fill="#d4d4d4"/><circle cx="226.8" cy="176.4" r="4" fill="#d4d4d4"/><circle cx="252" cy="176.4" r="4" fill="#d4d4d4"/><circle cx="277.2" cy="176.4" r="4" fill="#d4d4d4"/><circle cx="302.4" cy="176.4" r="4" fill="#d4d4d4"/><circle cx="327.6" cy="176.4" r="4" fill="#d4d4d4"/><circle cx="352.8" cy="176.4" r="4" fill="#d4d4d4"/><circle cx="378" cy="176.4" r="4" fill="#d4d4d4"/><circle cx="403.2" cy="176.4" r="4" fill="#d4d4d4"/><circle cx="428.4" cy="176.4" r="4" fill="#d4d4d4"/><circle cx="453.6" cy="176.4" r="4" fill="#d4d4d4"/><circle cx="478.8" cy="176.4" r="4" fill="#d4d4d4"/><circle cx="504" cy="176.4" r="4" fill="#d4d4d4"/><circle cx="529.2" cy="176.4" r="4" fill="#d4d4d4"/><circle cx="554.4" cy="176.4" r="4" fill="#d4d4d4"/><circle cx="579.6" cy="176.4" r="4" fill="#d4d4d4"/><circle cy="201.6" r="4" fill="#d4d4d4"/><circle cx="25.2" cy="201.6" r="4" fill="#d4d4d4"/><circle cx="50.4" cy="201.6" r="4" fill="#d4d4d4"/><circle cx="75.6" cy="201.6" r="4" fill="#d4d4d4"/><circle cx="100.8" cy="201.6" r="4" fill="#d4d4d4"/><circle cx="126" cy="201.6" r="4" fill="#d4d4d4"/><circle cx="151.2" cy="201.6" r="4" fill="#d4d4d4"/><circle cx="176.4" cy="201.6" r="4" fill="#d4d4d4"/><circle cx="201.6" cy="201.6" r="4" fill="#d4d4d4"/><circle cx="226.8" cy="201.6" r="4" fill="#d4d4d4"/><circle cx="252" cy="201.6" r="4" fill="#d4d4d4"/><circle cx="277.2" cy="201.6" r="4" fill="#d4d4d4"/><circle cx="302.4" cy="201.6" r="4" fill="#d4d4d4"/><circle cx="327.6" cy="201.6" r="4" fill="#d4d4d4"/><circle cx="352.8" cy="201.6" r="4" fill="#d4d4d4"/><circle cx="378" cy="201.6" r="4" fill="#d4d4d4"/><circle cx="403.2" cy="201.6" r="4" fill="#d4d4d4"/><circle cx="428.4" cy="201.6" r="4" fill="#d4d4d4"/><circle cx="453.6" cy="201.6" r="4" fill="#d4d4d4"/><circle cx="478.8" cy="201.6" r="4" fill="#d4d4d4"/><circle cx="504" cy="201.6" r="4" fill="#d4d4d4"/><circle cx="529.2" cy="201.6" r="4" fill="#d4d4d4"/><circle cx="554.4" cy="201.6" r="4" fill="#d4d4d4"/><circle cx="579.6" cy="201.6" r="4" fill="#d4d4d4"/><circle cy="226.8" r="4" fill="#d4d4d4"/><circle cx="25.2" cy="226.8" r="4" fill="#d4d4d4"/><circle cx="50.4" cy="226.8" r="4" fill="#d4d4d4"/><circle cx="75.6" cy="226.8" r="4" fill="#d4d4d4"/><circle cx="100.8" cy="226.8" r="4" fill="#d4d4d4"/><circle cx="126" cy="226.8" r="4" fill="#d4d4d4"/><circle cx="151.2" cy="226.8" r="4" fill="#d4d4d4"/><circle cx="176.4" cy="226.8" r="4" fill="#d4d4d4"/><circle cx="201.6" cy="226.8" r="4" fill="#d4d4d4"/><circle cx="226.8" cy="226.8" r="4" fill="#d4d4d4"/><circle cx="252" cy="226.8" r="4" fill="#d4d4d4"/><circle cx="277.2" cy="226.8" r="4" fill="#d4d4d4"/><circle cx="302.4" cy="226.8" r="4" fill="#d4d4d4"/><circle cx="327.6" cy="226.8" r="4" fill="#d4d4d4"/><circle cx="352.8" cy="226.8" r="4" fill="#d4d4d4"/><circle cx="378" cy="226.8" r="4" fill="#d4d4d4"/><circle cx="403.2" cy="226.8" r="4" fill="#d4d4d4"/><circle cx="428.4" cy="226.8" r="4" fill="#d4d4d4"/><circle cx="453.6" cy="226.8" r="4" fill="#d4d4d4"/><circle cx="478.8" cy="226.8" r="4" fill="#d4d4d4"/><circle cx="504" cy="226.8" r="4" fill="#d4d4d4"/><circle cx="529.2" cy="226.8" r="4" fill="#d4d4d4"/><circle cx="554.4" cy="226.8" r="4" fill="#d4d4d4"/><circle cx="579.6" cy="226.8" r="4" fill="#d4d4d4"/><circle cy="252" r="4" fill="#d4d4d4"/><circle cx="25.2" cy="252" r="4" fill="#d4d4d4"/><circle cx="50.4" cy="252" r="4" fill="#d4d4d4"/><circle cx="75.6" cy="252" r="4" fill="#d4d4d4"/><circle cx="100.8" cy="252" r="4" fill="#d4d4d4"/><circle cx="126" cy="252" r="4" fill="#d4d4d4"/><circle cx="151.2" cy="252" r="4" fill="#d4d4d4"/><circle cx="176.4" cy="252" r="4" fill="#d4d4d4"/><circle cx="201.6" cy="252" r="4" fill="#d4d4d4"/><circle cx="226.8" cy="252" r="4" fill="#d4d4d4"/><circle cx="252" cy="252" r="4" fill="#d4d4d4"/><circle cx="277.2" cy="252" r="4" fill="#d4d4d4"/><circle cx="302.4" cy="252" r="4" fill="#d4d4d4"/><circle cx="327.6" cy="252" r="4" fill="#d4d4d4"/><circle cx="352.8" cy="252" r="4" fill="#d4d4d4"/><circle cx="378" cy="252" r="4" fill="#d4d4d4"/><circle cx="403.2" cy="252" r="4" fill="#d4d4d4"/><circle cx="428.4" cy="252" r="4" fill="#d4d4d4"/><circle cx="453.6" cy="252" r="4" fill="#d4d4d4"/><circle cx="478.8" cy="252" r="4" fill="#d4d4d4"/><circle cx="504" cy="252" r="4" fill="#d4d4d4"/><circle cx="529.2" cy="252" r="4" fill="#d4d4d4"/><circle cx="554.4" cy="252" r="4" fill="#d4d4d4"/><circle cx="579.6" cy="252" r="4" fill="#d4d4d4"/><circle cy="277.2" r="4" fill="#d4d4d4"/><circle cx="25.2" cy="277.2" r="4" fill="#d4d4d4"/><circle cx="50.4" cy="277.2" r="4" fill="#d4d4d4"/><circle cx="75.6" cy="277.2" r="4" fill="#d4d4d4"/><circle cx="100.8" cy="277.2" r="4" fill="#d4d4d4"/><circle cx="126" cy="277.2" r="4" fill="#d4d4d4"/><circle cx="151.2" cy="277.2" r="4" fill="#d4d4d4"/><circle cx="176.4" cy="277.2" r="4" fill="#d4d4d4"/><circle cx="201.6" cy="277.2" r="4" fill="#d4d4d4"/><circle cx="226.8" cy="277.2" r="4" fill="#d4d4d4"/><circle cx="252" cy="277.2" r="4" fill="#d4d4d4"/><circle cx="277.2" cy="277.2" r="4" fill="#d4d4d4"/><circle cx="302.4" cy="277.2" r="4" fill="#d4d4d4"/><circle cx="327.6" cy="277.2" r="4" fill="#d4d4d4"/><circle cx="352.8" cy="277.2" r="4" fill="#d4d4d4"/><circle cx="378" cy="277.2" r="4" fill="#d4d4d4"/><circle cx="403.2" cy="277.2" r="4" fill="#d4d4d4"/><circle cx="428.4" cy="277.2" r="4" fill="#d4d4d4"/><circle cx="453.6" cy="277.2" r="4" fill="#d4d4d4"/><circle cx="478.8" cy="277.2" r="4" fill="#d4d4d4"/><circle cx="504" cy="277.2" r="4" fill="#d4d4d4"/><circle cx="529.2" cy="277.2" r="4" fill="#d4d4d4"/><circle cx="554.4" cy="277.2" r="4" fill="#d4d4d4"/><circle cx="579.6" cy="277.2" r="4" fill="#d4d4d4"/><circle cy="302.4" r="4" fill="#d4d4d4"/><circle cx="25.2" cy="302.4" r="4" fill="#d4d4d4"/><circle cx="50.4" cy="302.4" r="4" fill="#d4d4d4"/><circle cx="75.6" cy="302.4" r="4" fill="#d4d4d4"/><circle cx="100.8" cy="302.4" r="4" fill="#d4d4d4"/><circle cx="126" cy="302.4" r="4" fill="#d4d4d4"/><circle cx="151.2" cy="302.4" r="4" fill="#d4d4d4"/><circle cx="176.4" cy="302.4" r="4" fill="#d4d4d4"/><circle cx="201.6" cy="302.4" r="4" fill="#d4d4d4"/><circle cx="226.8" cy="302.4" r="4" fill="#d4d4d4"/><circle cx="252" cy="302.4" r="4" fill="#d4d4d4"/><circle cx="277.2" cy="302.4" r="4" fill="#d4d4d4"/><circle cx="302.4" cy="302.4" r="4" fill="#d4d4d4"/><circle cx="327.6" cy="302.4" r="4" fill="#d4d4d4"/><circle cx="352.8" cy="302.4" r="4" fill="#d4d4d4"/><circle cx="378" cy="302.4" r="4" fill="#d4d4d4"/><circle cx="403.2" cy="302.4" r="4" fill="#d4d4d4"/><circle cx="428.4" cy="302.4" r="4" fill="#d4d4d4"/><circle cx="453.6" cy="302.4" r="4" fill="#d4d4d4"/><circle cx="478.8" cy="302.4" r="4" fill="#d4d4d4"/><circle cx="504" cy="302.4" r="4" fill="#d4d4d4"/><circle cx="529.2" cy="302.4" r="4" fill="#d4d4d4"/><circle cx="554.4" cy="302.4" r="4" fill="#d4d4d4"/><circle cx="579.6" cy="302.4" r="4" fill="#d4d4d4"/><circle cy="327.6" r="4" fill="#d4d4d4"/><circle cx="25.2" cy="327.6" r="4" fill="#d4d4d4"/><circle cx="50.4" cy="327.6" r="4" fill="#d4d4d4"/><circle cx="75.6" cy="327.6" r="4" fill="#d4d4d4"/><circle cx="100.8" cy="327.6" r="4" fill="#d4d4d4"/><circle cx="126" cy="327.6" r="4" fill="#d4d4d4"/><circle cx="151.2" cy="327.6" r="4" fill="#d4d4d4"/><circle cx="176.4" cy="327.6" r="4" fill="#d4d4d4"/><circle cx="201.6" cy="327.6" r="4" fill="#d4d4d4"/><circle cx="226.8" cy="327.6" r="4" fill="#d4d4d4"/><circle cx="252" cy="327.6" r="4" fill="#d4d4d4"/><circle cx="277.2" cy="327.6" r="4" fill="#d4d4d4"/><circle cx="302.4" cy="327.6" r="4" fill="#d4d4d4"/><circle cx="327.6" cy="327.6" r="4" fill="#d4d4d4"/><circle cx="352.8" cy="327.6" r="4" fill="#d4d4d4"/><circle cx="378" cy="327.6" r="4" fill="#d4d4d4"/><circle cx="403.2" cy="327.6" r="4" fill="#d4d4d4"/><circle cx="428.4" cy="327.6" r="4" fill="#d4d4d4"/><circle cx="453.6" cy="327.6" r="4" fill="#d4d4d4"/><circle cx="478.8" cy="327.6" r="4" fill="#d4d4d4"/><circle cx="504" cy="327.6" r="4" fill="#d4d4d4"/><circle cx="529.2" cy="327.6" r="4" fill="#d4d4d4"/><circle cx="554.4" cy="327.6" r="4" fill="#d4d4d4"/><circle cx="579.6" cy="327.6" r="4" fill="#d4d4d4"/><circle cy="352.8" r="4" fill="#d4d4d4"/><circle cx="25.2" cy="352.8" r="4" fill="#d4d4d4"/><circle cx="50.4" cy="352.8" r="4" fill="#d4d4d4"/><circle cx="75.6" cy="352.8" r="4" fill="#d4d4d4"/><circle cx="100.8" cy="352.8" r="4" fill="#d4d4d4"/><circle cx="126" cy="352.8" r="4" fill="#d4d4d4"/><circle cx="151.2" cy="352.8" r="4" fill="#d4d4d4"/><circle cx="176.4" cy="352.8" r="4" fill="#d4d4d4"/><circle cx="201.6" cy="352.8" r="4" fill="#d4d4d4"/><circle cx="226.8" cy="352.8" r="4" fill="#d4d4d4"/><circle cx="252" cy="352.8" r="4" fill="#d4d4d4"/><circle cx="277.2" cy="352.8" r="4" fill="#d4d4d4"/><circle cx="302.4" cy="352.8" r="4" fill="#d4d4d4"/><circle cx="327.6" cy="352.8" r="4" fill="#d4d4d4"/><circle cx="352.8" cy="352.8" r="4" fill="#d4d4d4"/><circle cx="378" cy="352.8" r="4" fill="#d4d4d4"/><circle cx="403.2" cy="352.8" r="4" fill="#d4d4d4"/><circle cx="428.4" cy="352.8" r="4" fill="#d4d4d4"/><circle cx="453.6" cy="352.8" r="4" fill="#d4d4d4"/><circle cx="478.8" cy="352.8" r="4" fill="#d4d4d4"/><circle cx="504" cy="352.8" r="4" fill="#d4d4d4"/><circle cx="529.2" cy="352.8" r="4" fill="#d4d4d4"/><circle cx="554.4" cy="352.8" r="4" fill="#d4d4d4"/><circle cx="579.6" cy="352.8" r="4" fill="#d4d4d4"/><circle cy="378" r="4" fill="#d4d4d4"/><circle cx="25.2" cy="378" r="4" fill="#d4d4d4"/><circle cx="50.4" cy="378" r="4" fill="#d4d4d4"/><circle cx="75.6" cy="378" r="4" fill="#d4d4d4"/><circle cx="100.8" cy="378" r="4" fill="#d4d4d4"/><circle cx="126" cy="378" r="4" fill="#d4d4d4"/><circle cx="151.2" cy="378" r="4" fill="#d4d4d4"/><circle cx="176.4" cy="378" r="4" fill="#d4d4d4"/><circle cx="201.6" cy="378" r="4" fill="#d4d4d4"/><circle cx="226.8" cy="378" r="4" fill="#d4d4d4"/><circle cx="252" cy="378" r="4" fill="#d4d4d4"/><circle cx="277.2" cy="378" r="4" fill="#d4d4d4"/><circle cx="302.4" cy="378" r="4" fill="#d4d4d4"/><circle cx="327.6" cy="378" r="4" fill="#d4d4d4"/><circle cx="352.8" cy="378" r="4" fill="#d4d4d4"/><circle cx="378" cy="378" r="4" fill="#d4d4d4"/><circle cx="403.2" cy="378" r="4" fill="#d4d4d4"/><circle cx="428.4" cy="378" r="4" fill="#d4d4d4"/><circle cx="453.6" cy="378" r="4" fill="#d4d4d4"/><circle cx="478.8" cy="378" r="4" fill="#d4d4d4"/><circle cx="504" cy="378" r="4" fill="#d4d4d4"/><circle cx="529.2" cy="378" r="4" fill="#d4d4d4"/><circle cx="554.4" cy="378" r="4" fill="#d4d4d4"/><circle cx="579.6" cy="378" r="4" fill="#d4d4d4"/><circle cy="403.2" r="4" fill="#d4d4d4"/><circle cx="25.2" cy="403.2" r="4" fill="#d4d4d4"/><circle cx="50.4" cy="403.2" r="4" fill="#d4d4d4"/><circle cx="75.6" cy="403.2" r="4" fill="#d4d4d4"/><circle cx="100.8" cy="403.2" r="4" fill="#d4d4d4"/><circle cx="126" cy="403.2" r="4" fill="#d4d4d4"/><circle cx="151.2" cy="403.2" r="4" fill="#d4d4d4"/><circle cx="176.4" cy="403.2" r="4" fill="#d4d4d4"/><circle cx="201.6" cy="403.2" r="4" fill="#d4d4d4"/><circle cx="226.8" cy="403.2" r="4" fill="#d4d4d4"/><circle cx="252" cy="403.2" r="4" fill="#d4d4d4"/><circle cx="277.2" cy="403.2" r="4" fill="#d4d4d4"/><circle cx="302.4" cy="403.2" r="4" fill="#d4d4d4"/><circle cx="327.6" cy="403.2" r="4" fill="#d4d4d4"/><circle cx="352.8" cy="403.2" r="4" fill="#d4d4d4"/><circle cx="378" cy="403.2" r="4" fill="#d4d4d4"/><circle cx="403.2" cy="403.2" r="4" fill="#d4d4d4"/><circle cx="428.4" cy="403.2" r="4" fill="#d4d4d4"/><circle cx="453.6" cy="403.2" r="4" fill="#d4d4d4"/><circle cx="478.8" cy="403.2" r="4" fill="#d4d4d4"/><circle cx="504" cy="403.2" r="4" fill="#d4d4d4"/><circle cx="529.2" cy="403.2" r="4" fill="#d4d4d4"/><circle cx="554.4" cy="403.2" r="4" fill="#d4d4d4"/><circle cx="579.6" cy="403.2" r="4" fill="#d4d4d4"/><circle cy="428.4" r="4" fill="#d4d4d4"/><circle cx="25.2" cy="428.4" r="4" fill="#d4d4d4"/><circle cx="50.4" cy="428.4" r="4" fill="#d4d4d4"/><circle cx="75.6" cy="428.4" r="4" fill="#d4d4d4"/><circle cx="100.8" cy="428.4" r="4" fill="#d4d4d4"/><circle cx="126" cy="428.4" r="4" fill="#d4d4d4"/><circle cx="151.2" cy="428.4" r="4" fill="#d4d4d4"/><circle cx="176.4" cy="428.4" r="4" fill="#d4d4d4"/><circle cx="201.6" cy="428.4" r="4" fill="#d4d4d4"/><circle cx="226.8" cy="428.4" r="4" fill="#d4d4d4"/><circle cx="252" cy="428.4" r="4" fill="#d4d4d4"/><circle cx="277.2" cy="428.4" r="4" fill="#d4d4d4"/><circle cx="302.4" cy="428.4" r="4" fill="#d4d4d4"/><circle cx="327.6" cy="428.4" r="4" fill="#d4d4d4"/><circle cx="352.8" cy="428.4" r="4" fill="#d4d4d4"/><circle cx="378" cy="428.4" r="4" fill="#d4d4d4"/><circle cx="403.2" cy="428.4" r="4" fill="#d4d4d4"/><circle cx="428.4" cy="428.4" r="4" fill="#d4d4d4"/><circle cx="453.6" cy="428.4" r="4" fill="#d4d4d4"/><circle cx="478.8" cy="428.4" r="4" fill="#d4d4d4"/><circle cx="504" cy="428.4" r="4" fill="#d4d4d4"/><circle cx="529.2" cy="428.4" r="4" fill="#d4d4d4"/><circle cx="554.4" cy="428.4" r="4" fill="#d4d4d4"/><circle cx="579.6" cy="428.4" r="4" fill="#d4d4d4"/><circle cy="453.6" r="4" fill="#d4d4d4"/><circle cx="25.2" cy="453.6" r="4" fill="#d4d4d4"/><circle cx="50.4" cy="453.6" r="4" fill="#d4d4d4"/><circle cx="75.6" cy="453.6" r="4" fill="#d4d4d4"/><circle cx="100.8" cy="453.6" r="4" fill="#d4d4d4"/><circle cx="126" cy="453.6" r="4" fill="#d4d4d4"/><circle cx="151.2" cy="453.6" r="4" fill="#d4d4d4"/><circle cx="176.4" cy="453.6" r="4" fill="#d4d4d4"/><circle cx="201.6" cy="453.6" r="4" fill="#d4d4d4"/><circle cx="226.8" cy="453.6" r="4" fill="#d4d4d4"/><circle cx="252" cy="453.6" r="4" fill="#d4d4d4"/><circle cx="277.2" cy="453.6" r="4" fill="#d4d4d4"/><circle cx="302.4" cy="453.6" r="4" fill="#d4d4d4"/><circle cx="327.6" cy="453.6" r="4" fill="#d4d4d4"/><circle cx="352.8" cy="453.6" r="4" fill="#d4d4d4"/><circle cx="378" cy="453.6" r="4" fill="#d4d4d4"/><circle cx="403.2" cy="453.6" r="4" fill="#d4d4d4"/><circle cx="428.4" cy="453.6" r="4" fill="#d4d4d4"/><circle cx="453.6" cy="453.6" r="4" fill="#d4d4d4"/><circle cx="478.8" cy="453.6" r="4" fill="#d4d4d4"/><circle cx="504" cy="453.6" r="4" fill="#d4d4d4"/><circle cx="529.2" cy="453.6" r="4" fill="#d4d4d4"/><circle cx="554.4" cy="453.6" r="4" fill="#d4d4d4"/><circle cx="579.6" cy="453.6" r="4" fill="#d4d4d4"/><circle cy="478.8" r="4" fill="#d4d4d4"/><circle cx="25.2" cy="478.8" r="4" fill="#d4d4d4"/><circle cx="50.4" cy="478.8" r="4" fill="#d4d4d4"/><circle cx="75.6" cy="478.8" r="4" fill="#d4d4d4"/><circle cx="100.8" cy="478.8" r="4" fill="#d4d4d4"/><circle cx="126" cy="478.8" r="4" fill="#d4d4d4"/><circle cx="151.2" cy="478.8" r="4" fill="#d4d4d4"/><circle cx="176.4" cy="478.8" r="4" fill="#d4d4d4"/><circle cx="201.6" cy="478.8" r="4" fill="#d4d4d4"/><circle cx="226.8" cy="478.8" r="4" fill="#d4d4d4"/><circle cx="252" cy="478.8" r="4" fill="#d4d4d4"/><circle cx="277.2" cy="478.8" r="4" fill="#d4d4d4"/><circle cx="302.4" cy="478.8" r="4" fill="#d4d4d4"/><circle cx="327.6" cy="478.8" r="4" fill="#d4d4d4"/><circle cx="352.8" cy="478.8" r="4" fill="#d4d4d4"/><circle cx="378" cy="478.8" r="4" fill="#d4d4d4"/><circle cx="403.2" cy="478.8" r="4" fill="#d4d4d4"/><circle cx="428.4" cy="478.8" r="4" fill="#d4d4d4"/><circle cx="453.6" cy="478.8" r="4" fill="#d4d4d4"/><circle cx="478.8" cy="478.8" r="4" fill="#d4d4d4"/><circle cx="504" cy="478.8" r="4" fill="#d4d4d4"/><circle cx="529.2" cy="478.8" r="4" fill="#d4d4d4"/><circle cx="554.4" cy="478.8" r="4" fill="#d4d4d4"/><circle cx="579.6" cy="478.8" r="4" fill="#d4d4d4"/><circle cy="504" r="4" fill="#d4d4d4"/><circle cx="25.2" cy="504" r="4" fill="#d4d4d4"/><circle cx="50.4" cy="504" r="4" fill="#d4d4d4"/><circle cx="75.6" cy="504" r="4" fill="#d4d4d4"/><circle cx="100.8" cy="504" r="4" fill="#d4d4d4"/><circle cx="126" cy="504" r="4" fill="#d4d4d4"/><circle cx="151.2" cy="504" r="4" fill="#d4d4d4"/><circle cx="176.4" cy="504" r="4" fill="#d4d4d4"/><circle cx="201.6" cy="504" r="4" fill="#d4d4d4"/><circle cx="226.8" cy="504" r="4" fill="#d4d4d4"/><circle cx="252" cy="504" r="4" fill="#d4d4d4"/><circle cx="277.2" cy="504" r="4" fill="#d4d4d4"/><circle cx="302.4" cy="504" r="4" fill="#d4d4d4"/><circle cx="327.6" cy="504" r="4" fill="#d4d4d4"/><circle cx="352.8" cy="504" r="4" fill="#d4d4d4"/><circle cx="378" cy="504" r="4" fill="#d4d4d4"/><circle cx="403.2" cy="504" r="4" fill="#d4d4d4"/><circle cx="428.4" cy="504" r="4" fill="#d4d4d4"/><circle cx="453.6" cy="504" r="4" fill="#d4d4d4"/><circle cx="478.8" cy="504" r="4" fill="#d4d4d4"/><circle cx="504" cy="504" r="4" fill="#d4d4d4"/><circle cx="529.2" cy="504" r="4" fill="#d4d4d4"/><circle cx="554.4" cy="504" r="4" fill="#d4d4d4"/><circle cx="579.6" cy="504" r="4" fill="#d4d4d4"/><circle cy="529.2" r="4" fill="#d4d4d4"/><circle cx="25.2" cy="529.2" r="4" fill="#d4d4d4"/><circle cx="50.4" cy="529.2" r="4" fill="#d4d4d4"/><circle cx="75.6" cy="529.2" r="4" fill="#d4d4d4"/><circle cx="100.8" cy="529.2" r="4" fill="#d4d4d4"/><circle cx="126" cy="529.2" r="4" fill="#d4d4d4"/><circle cx="151.2" cy="529.2" r="4" fill="#d4d4d4"/><circle cx="176.4" cy="529.2" r="4" fill="#d4d4d4"/><circle cx="201.6" cy="529.2" r="4" fill="#d4d4d4"/><circle cx="226.8" cy="529.2" r="4" fill="#d4d4d4"/><circle cx="252" cy="529.2" r="4" fill="#d4d4d4"/><circle cx="277.2" cy="529.2" r="4" fill="#d4d4d4"/><circle cx="302.4" cy="529.2" r="4" fill="#d4d4d4"/><circle cx="327.6" cy="529.2" r="4" fill="#d4d4d4"/><circle cx="352.8" cy="529.2" r="4" fill="#d4d4d4"/><circle cx="378" cy="529.2" r="4" fill="#d4d4d4"/><circle cx="403.2" cy="529.2" r="4" fill="#d4d4d4"/><circle cx="428.4" cy="529.2" r="4" fill="#d4d4d4"/><circle cx="453.6" cy="529.2" r="4" fill="#d4d4d4"/><circle cx="478.8" cy="529.2" r="4" fill="#d4d4d4"/><circle cx="504" cy="529.2" r="4" fill="#d4d4d4"/><circle cx="529.2" cy="529.2" r="4" fill="#d4d4d4"/><circle cx="554.4" cy="529.2" r="4" fill="#d4d4d4"/><circle cx="579.6" cy="529.2" r="4" fill="#d4d4d4"/><circle cy="554.4" r="4" fill="#d4d4d4"/><circle cx="25.2" cy="554.4" r="4" fill="#d4d4d4"/><circle cx="50.4" cy="554.4" r="4" fill="#d4d4d4"/><circle cx="75.6" cy="554.4" r="4" fill="#d4d4d4"/><circle cx="100.8" cy="554.4" r="4" fill="#d4d4d4"/><circle cx="126" cy="554.4" r="4" fill="#d4d4d4"/><circle cx="151.2" cy="554.4" r="4" fill="#d4d4d4"/><circle cx="176.4" cy="554.4" r="4" fill="#d4d4d4"/><circle cx="201.6" cy="554.4" r="4" fill="#d4d4d4"/><circle cx="226.8" cy="554.4" r="4" fill="#d4d4d4"/><circle cx="252" cy="554.4" r="4" fill="#d4d4d4"/><circle cx="277.2" cy="554.4" r="4" fill="#d4d4d4"/><circle cx="302.4" cy="554.4" r="4" fill="#d4d4d4"/><circle cx="327.6" cy="554.4" r="4" fill="#d4d4d4"/><circle cx="352.8" cy="554.4" r="4" fill="#d4d4d4"/><circle cx="378" cy="554.4" r="4" fill="#d4d4d4"/><circle cx="403.2" cy="554.4" r="4" fill="#d4d4d4"/><circle cx="428.4" cy="554.4" r="4" fill="#d4d4d4"/><circle cx="453.6" cy="554.4" r="4" fill="#d4d4d4"/><circle cx="478.8" cy="554.4" r="4" fill="#d4d4d4"/><circle cx="504" cy="554.4" r="4" fill="#d4d4d4"/><circle cx="529.2" cy="554.4" r="4" fill="#d4d4d4"/><circle cx="554.4" cy="554.4" r="4" fill="#d4d4d4"/><circle cx="579.6" cy="554.4" r="4" fill="#d4d4d4"/><circle cy="579.6" r="4" fill="#d4d4d4"/><circle cx="25.2" cy="579.6" r="4" fill="#d4d4d4"/><circle cx="50.4" cy="579.6" r="4" fill="#d4d4d4"/><circle cx="75.6" cy="579.6" r="4" fill="#d4d4d4"/><circle cx="100.8" cy="579.6" r="4" fill="#d4d4d4"/><circle cx="126" cy="579.6" r="4" fill="#d4d4d4"/><circle cx="151.2" cy="579.6" r="4" fill="#d4d4d4"/><circle cx="176.4" cy="579.6" r="4" fill="#d4d4d4"/><circle cx="201.6" cy="579.6" r="4" fill="#d4d4d4"/><circle cx="226.8" cy="579.6" r="4" fill="#d4d4d4"/><circle cx="252" cy="579.6" r="4" fill="#d4d4d4"/><circle cx="277.2" cy="579.6" r="4" fill="#d4d4d4"/><circle cx="302.4" cy="579.6" r="4" fill="#d4d4d4"/><circle cx="327.6" cy="579.6" r="4" fill="#d4d4d4"/><circle cx="352.8" cy="579.6" r="4" fill="#d4d4d4"/><circle cx="378" cy="579.6" r="4" fill="#d4d4d4"/><circle cx="403.2" cy="579.6" r="4" fill="#d4d4d4"/><circle cx="428.4" cy="579.6" r="4" fill="#d4d4d4"/><circle cx="453.6" cy="579.6" r="4" fill="#d4d4d4"/><circle cx="478.8" cy="579.6" r="4" fill="#d4d4d4"/><circle cx="504" cy="579.6" r="4" fill="#d4d4d4"/><circle cx="529.2" cy="579.6" r="4" fill="#d4d4d4"/><circle cx="554.4" cy="579.6" r="4" fill="#d4d4d4"/><circle cx="579.6" cy="579.6" r="4" fill="#d4d4d4"/></svg>